solid wheeltracks
facet normal 0.9791133353119551 0.2033152149109823 -2.033443128044098e-19
  outer loop
    vertex -82.26200103759764 131.35400390625 0.04400000348687172
    vertex -82.11000061035156 130.62200927734375 25.998001098632812
    vertex -82.11000061035156 130.62200927734375 0.04400000348687172
  endloop
endfacet
facet normal 0.9791133353119551 0.2033152149109823 -2.033443128044098e-19
  outer loop
    vertex -82.11000061035156 130.62200927734375 25.998001098632812
    vertex -82.26200103759764 131.35400390625 0.04400000348687172
    vertex -82.26200103759764 131.35400390625 25.998001098632812
  endloop
endfacet
facet normal 0.8237328179506366 0.5669781694484396 -5.354705372860797e-32
  outer loop
    vertex -83.27000427246094 133.3400115966797 0.04400000348687172
    vertex -82.8460006713867 132.72399902343747 25.998001098632812
    vertex -82.8460006713867 132.72399902343747 0.04400000348687172
  endloop
endfacet
facet normal 0.8237328179506366 0.5669781694484396 -5.354705372860797e-32
  outer loop
    vertex -82.8460006713867 132.72399902343747 25.998001098632812
    vertex -83.27000427246094 133.3400115966797 0.04400000348687172
    vertex -83.27000427246094 133.3400115966797 25.998001098632812
  endloop
endfacet
facet normal -0.5651629354580127 0.8249793066401618 1.6334639852265742e-32
  outer loop
    vertex -91.27000427246094 134.3100128173828 25.998001098632812
    vertex -90.65400695800781 134.73200988769528 2.5400002002716064
    vertex -91.27000427246094 134.3100128173828 2.5400002002716064
  endloop
endfacet
facet normal -0.5651629354580127 0.8249793066401618 1.6334639852265742e-32
  outer loop
    vertex -90.65400695800781 134.73200988769528 2.5400002002716064
    vertex -91.27000427246094 134.3100128173828 25.998001098632812
    vertex -90.65400695800781 134.73200988769528 25.998001098632812
  endloop
endfacet
facet normal -0.43647649944080386 -0.8997156581031043 -1.1116250493002736e-20
  outer loop
    vertex -89.88200378417969 124.53400421142578 25.998001098632812
    vertex -90.55400085449217 124.8600082397461 0.04400000348687172
    vertex -89.88200378417969 124.53400421142578 0.04400000348687172
  endloop
endfacet
facet normal -0.43647649944080386 -0.8997156581031043 -1.1116250493002736e-20
  outer loop
    vertex -90.55400085449217 124.8600082397461 0.04400000348687172
    vertex -89.88200378417969 124.53400421142578 25.998001098632812
    vertex -90.55400085449217 124.8600082397461 25.998001098632812
  endloop
endfacet
facet normal 0.4385708473387626 0.8986966183671551 -3.73286400441706e-19
  outer loop
    vertex -85.6240005493164 135.11199951171875 25.998001098632812
    vertex -84.95600128173827 134.78601074218747 0.04400000348687172
    vertex -85.6240005493164 135.11199951171875 0.04400000348687172
  endloop
endfacet
facet normal 0.4385708473387626 0.8986966183671551 -3.73286400441706e-19
  outer loop
    vertex -84.95600128173827 134.78601074218747 0.04400000348687172
    vertex -85.6240005493164 135.11199951171875 25.998001098632812
    vertex -84.95600128173827 134.78601074218747 25.998001098632812
  endloop
endfacet
facet normal -0.9033545542590049 0.42889452434046377 -0.00019050008470748823
  outer loop
    vertex -92.71600341796875 132.62400817871094 2.5400002002716064
    vertex -93.03600311279297 131.95001220703125 2.5400002002716064
    vertex -93.04000091552733 131.95201110839844 25.998001098632812
  endloop
endfacet
facet normal 0.32904144664071155 -0.9443154803309051 3.922348424705588e-19
  outer loop
    vertex -85.51800537109375 124.58000946044922 25.998001098632812
    vertex -86.22400665283203 124.33400726318358 0.04400000348687172
    vertex -85.51800537109375 124.58000946044922 0.04400000348687172
  endloop
endfacet
facet normal 0.32904144664071155 -0.9443154803309051 3.922348424705588e-19
  outer loop
    vertex -86.22400665283203 124.33400726318358 0.04400000348687172
    vertex -85.51800537109375 124.58000946044922 25.998001098632812
    vertex -86.22400665283203 124.33400726318358 25.998001098632812
  endloop
endfacet
facet normal -0.900769252900051 0.4342980002600562 -1.9170049132952896e-18
  outer loop
    vertex -92.71600341796875 132.62400817871094 2.5400002002716064
    vertex -93.04000091552733 131.95201110839844 25.998001098632812
    vertex -92.71600341796875 132.62400817871094 25.998001098632812
  endloop
endfacet
facet normal 0.4493637623697821 -0.8933488730999073 3.98544488538971e-19
  outer loop
    vertex -84.85400390625 124.91400909423827 2.5400002002716064
    vertex -85.51800537109375 124.58000946044922 0.04400000348687172
    vertex -84.85400390625 124.91400909423827 0.04400000348687172
  endloop
endfacet
facet normal 0.4493637623697821 -0.8933488730999073 3.98544488538971e-19
  outer loop
    vertex -85.51800537109375 124.58000946044922 0.04400000348687172
    vertex -84.85400390625 124.91400909423827 2.5400002002716064
    vertex -85.51800537109375 124.58000946044922 25.998001098632812
  endloop
endfacet
facet normal 0.4493637623697821 -0.8933488730999073 3.98544488538971e-19
  outer loop
    vertex -85.51800537109375 124.58000946044922 25.998001098632812
    vertex -84.85400390625 124.91400909423827 2.5400002002716064
    vertex -84.85400390625 124.91400909423827 25.998001098632812
  endloop
endfacet
facet normal 0.5422560802155444 0.8402132726095638 7.935216499725441e-32
  outer loop
    vertex -84.95600128173827 134.78601074218747 25.998001098632812
    vertex -84.33000183105469 134.3820037841797 0.04400000348687172
    vertex -84.95600128173827 134.78601074218747 0.04400000348687172
  endloop
endfacet
facet normal 0.5422560802155444 0.8402132726095638 7.935216499725441e-32
  outer loop
    vertex -84.33000183105469 134.3820037841797 0.04400000348687172
    vertex -84.95600128173827 134.78601074218747 25.998001098632812
    vertex -84.33000183105469 134.3820037841797 25.998001098632812
  endloop
endfacet
facet normal 0.3106085997875822 0.9505378991592065 1.4667386045544976e-32
  outer loop
    vertex -86.3340072631836 135.34400939941406 25.998001098632812
    vertex -85.6240005493164 135.11199951171875 0.04400000348687172
    vertex -86.3340072631836 135.34400939941406 0.04400000348687172
  endloop
endfacet
facet normal 0.3106085997875822 0.9505378991592065 1.4667386045544976e-32
  outer loop
    vertex -85.6240005493164 135.11199951171875 0.04400000348687172
    vertex -86.3340072631836 135.34400939941406 25.998001098632812
    vertex -85.6240005493164 135.11199951171875 25.998001098632812
  endloop
endfacet
facet normal -0.07239104206674303 0.9973763266834095 9.761350655865081e-32
  outer loop
    vertex -88.5560073852539 135.46800231933594 25.998001098632812
    vertex -87.81200408935545 135.52200317382812 0.04400000348687172
    vertex -88.5560073852539 135.46800231933594 0.04400000348687172
  endloop
endfacet
facet normal -0.07239104206674303 0.9973763266834095 9.761350655865081e-32
  outer loop
    vertex -87.81200408935545 135.52200317382812 0.04400000348687172
    vertex -88.5560073852539 135.46800231933594 25.998001098632812
    vertex -87.81200408935545 135.52200317382812 25.998001098632812
  endloop
endfacet
facet normal -0.20896926765389942 0.9779222081414212 -2.030969370133916e-19
  outer loop
    vertex -89.28600311279295 135.31201171875 25.998001098632812
    vertex -88.5560073852539 135.46800231933594 0.04400000348687172
    vertex -89.28600311279295 135.31201171875 0.04400000348687172
  endloop
endfacet
facet normal -0.20896926765389942 0.9779222081414212 -2.030969370133916e-19
  outer loop
    vertex -88.5560073852539 135.46800231933594 0.04400000348687172
    vertex -89.28600311279295 135.31201171875 25.998001098632812
    vertex -88.5560073852539 135.46800231933594 25.998001098632812
  endloop
endfacet
facet normal 0.20843319527427545 -0.9780366062207262 -1.7315137412638046e-19
  outer loop
    vertex -86.22400665283203 124.33400726318358 25.998001098632812
    vertex -86.95600128173828 124.17800903320311 0.04400000348687172
    vertex -86.22400665283203 124.33400726318358 0.04400000348687172
  endloop
endfacet
facet normal 0.20843319527427545 -0.9780366062207262 -1.7315137412638046e-19
  outer loop
    vertex -86.95600128173828 124.17800903320311 0.04400000348687172
    vertex -86.22400665283203 124.33400726318358 25.998001098632812
    vertex -86.95600128173828 124.17800903320311 25.998001098632812
  endloop
endfacet
facet normal -0.8928136221422024 -0.45042628266712037 -3.708428144308741e-19
  outer loop
    vertex -92.9980010986328 127.58800506591795 25.998001098632812
    vertex -92.66200256347655 126.92200469970703 0.04400000348687172
    vertex -92.66200256347655 126.92200469970703 25.998001098632812
  endloop
endfacet
facet normal -0.8928136221422024 -0.45042628266712037 -3.708428144308741e-19
  outer loop
    vertex -92.66200256347655 126.92200469970703 0.04400000348687172
    vertex -92.9980010986328 127.58800506591795 25.998001098632812
    vertex -92.9980010986328 127.58800506591795 0.04400000348687172
  endloop
endfacet
facet normal 0.5620910445015564 -0.8270753639730477 0.0
  outer loop
    vertex -84.23600769042969 125.33400726318358 25.998001098632812
    vertex -84.85400390625 124.91400909423827 2.5400002002716064
    vertex -84.23600769042969 125.33400726318358 2.5400002002716064
  endloop
endfacet
facet normal 0.5620910445015564 -0.8270753639730477 0.0
  outer loop
    vertex -84.85400390625 124.91400909423827 2.5400002002716064
    vertex -84.23600769042969 125.33400726318358 25.998001098632812
    vertex -84.85400390625 124.91400909423827 25.998001098632812
  endloop
endfacet
facet normal 0.9431868009069972 0.33226293593301176 -1.3158770957563095e-32
  outer loop
    vertex -82.51000213623045 132.05799865722656 0.04400000348687172
    vertex -82.26200103759764 131.35400390625 25.998001098632812
    vertex -82.26200103759764 131.35400390625 0.04400000348687172
  endloop
endfacet
facet normal 0.9431868009069972 0.33226293593301176 -1.3158770957563095e-32
  outer loop
    vertex -82.26200103759764 131.35400390625 25.998001098632812
    vertex -82.51000213623045 132.05799865722656 0.04400000348687172
    vertex -82.51000213623045 132.05799865722656 25.998001098632812
  endloop
endfacet
facet normal 0.9971793316715396 0.07505584911985176 -4.7088246185931065e-32
  outer loop
    vertex -82.11000061035156 130.62200927734375 0.04400000348687172
    vertex -82.05400085449217 129.87800598144528 25.998001098632812
    vertex -82.05400085449217 129.87800598144528 0.04400000348687172
  endloop
endfacet
facet normal 0.9971793316715396 0.07505584911985176 -4.7088246185931065e-32
  outer loop
    vertex -82.05400085449217 129.87800598144528 25.998001098632812
    vertex -82.11000061035156 130.62200927734375 0.04400000348687172
    vertex -82.11000061035156 130.62200927734375 25.998001098632812
  endloop
endfacet
facet normal -0.31461479426930405 -0.9492194326007468 3.942717686740134e-19
  outer loop
    vertex -89.1760025024414 124.3000030517578 25.998001098632812
    vertex -89.88200378417969 124.53400421142578 0.04400000348687172
    vertex -89.1760025024414 124.3000030517578 0.04400000348687172
  endloop
endfacet
facet normal -0.31461479426930405 -0.9492194326007468 3.942717686740134e-19
  outer loop
    vertex -89.88200378417969 124.53400421142578 0.04400000348687172
    vertex -89.1760025024414 124.3000030517578 25.998001098632812
    vertex -89.88200378417969 124.53400421142578 25.998001098632812
  endloop
endfacet
facet normal 0.0562006636667339 0.9984194937016297 -2.653876391637418e-33
  outer loop
    vertex -87.81200408935545 135.52200317382812 25.998001098632812
    vertex -87.06600189208983 135.48001098632812 0.04400000348687172
    vertex -87.81200408935545 135.52200317382812 0.04400000348687172
  endloop
endfacet
facet normal 0.0562006636667339 0.9984194937016297 -2.653876391637418e-33
  outer loop
    vertex -87.06600189208983 135.48001098632812 0.04400000348687172
    vertex -87.81200408935545 135.52200317382812 25.998001098632812
    vertex -87.06600189208983 135.48001098632812 25.998001098632812
  endloop
endfacet
facet normal -0.05651331202267291 -0.9984018457335845 0.0
  outer loop
    vertex -87.69800567626953 124.12400817871092 25.998001098632812
    vertex -88.44000244140625 124.16600799560547 0.04400000348687172
    vertex -87.69800567626953 124.12400817871092 0.04400000348687172
  endloop
endfacet
facet normal -0.05651331202267291 -0.9984018457335845 0.0
  outer loop
    vertex -88.44000244140625 124.16600799560547 0.04400000348687172
    vertex -87.69800567626953 124.12400817871092 25.998001098632812
    vertex -88.44000244140625 124.16600799560547 25.998001098632812
  endloop
endfacet
facet normal 0.9495919146102291 -0.3134887489318868 -0.0
  outer loop
    vertex -82.23200225830078 128.40200805664062 25.998001098632812
    vertex -82.43800354003906 127.7780075073242 2.5400002002716064
    vertex -82.23200225830078 128.40200805664062 2.5400002002716064
  endloop
endfacet
facet normal 0.9315866099470183 -0.3635163976663474 0.001488890561533764
  outer loop
    vertex -82.23200225830078 128.40200805664062 25.998001098632812
    vertex -82.47000122070311 127.69600677490234 2.5400002002716064
    vertex -82.43800354003906 127.7780075073242 2.5400002002716064
  endloop
endfacet
facet normal 0.9043929828339271 -0.4267005186319233 9.566370271132741e-19
  outer loop
    vertex -82.47000122070311 127.69600677490234 2.5400002002716064
    vertex -82.78800201416014 127.02200317382811 25.998001098632812
    vertex -82.78800201416014 127.02200317382811 2.5400002002716064
  endloop
endfacet
facet normal 0.9502807319206172 -0.31139437684644344 -0.0002694602594545892
  outer loop
    vertex -82.23200225830078 128.40200805664062 25.998001098632812
    vertex -82.46400451660156 127.69400787353514 25.998001098632812
    vertex -82.47000122070311 127.69600677490234 2.5400002002716064
  endloop
endfacet
facet normal 0.9007711496091023 -0.4342939840652282 -0.000267276351173708
  outer loop
    vertex -82.47000122070311 127.69600677490234 2.5400002002716064
    vertex -82.46400451660156 127.69400787353514 25.998001098632812
    vertex -82.78800201416014 127.02200317382811 25.998001098632812
  endloop
endfacet
facet normal 0.9981418888569056 -0.06093250125482355 -0.0
  outer loop
    vertex -82.0560073852539 129.82400512695312 2.5400002002716064
    vertex -82.09800720214844 129.13600158691406 25.998001098632812
    vertex -82.09800720214844 129.13600158691406 2.5400002002716064
  endloop
endfacet
facet normal 0.9982459410555202 -0.059203366249989266 5.0900380769621885e-05
  outer loop
    vertex -82.05400085449217 129.87800598144528 25.998001098632812
    vertex -82.09800720214844 129.13600158691406 25.998001098632812
    vertex -82.0560073852539 129.82400512695312 2.5400002002716064
  endloop
endfacet
facet normal 0.9993103782416528 -0.0371317645490322 1.0846947282160845e-20
  outer loop
    vertex -82.05400085449217 129.87800598144528 0.04400000348687172
    vertex -82.0560073852539 129.82400512695312 2.5400002002716064
    vertex -82.0560073852539 129.82400512695312 0.04400000348687172
  endloop
endfacet
facet normal 0.9993103782416528 -0.0371317645490322 1.0846947282160845e-20
  outer loop
    vertex -82.0560073852539 129.82400512695312 2.5400002002716064
    vertex -82.05400085449217 129.87800598144528 0.04400000348687172
    vertex -82.05400085449217 129.87800598144528 25.998001098632812
  endloop
endfacet
facet normal 0.671333796975696 -0.7411551342588103 -4.284252003526778e-32
  outer loop
    vertex -83.68400573730469 125.83400726318358 25.998001098632812
    vertex -84.23600769042969 125.33400726318358 2.5400002002716064
    vertex -83.68400573730469 125.83400726318358 2.5400002002716064
  endloop
endfacet
facet normal 0.671333796975696 -0.7411551342588103 -4.284252003526778e-32
  outer loop
    vertex -84.23600769042969 125.33400726318358 2.5400002002716064
    vertex -83.68400573730469 125.83400726318358 25.998001098632812
    vertex -84.23600769042969 125.33400726318358 25.998001098632812
  endloop
endfacet
facet normal 0.9837418828938143 -0.1795881617494121 2.5009606972421326e-19
  outer loop
    vertex -82.09800720214844 129.13600158691406 2.5400002002716064
    vertex -82.23200225830078 128.40200805664062 25.998001098632812
    vertex -82.23200225830078 128.40200805664062 2.5400002002716064
  endloop
endfacet
facet normal 0.9837418828938143 -0.1795881617494121 2.5009606972421326e-19
  outer loop
    vertex -82.23200225830078 128.40200805664062 25.998001098632812
    vertex -82.09800720214844 129.13600158691406 2.5400002002716064
    vertex -82.09800720214844 129.13600158691406 25.998001098632812
  endloop
endfacet
facet normal -0.6556479028790958 -0.7550667701933675 3.0960639557488973e-32
  outer loop
    vertex -91.18000793457031 125.26600646972655 25.998001098632812
    vertex -91.74200439453125 125.7540054321289 0.04400000348687172
    vertex -91.18000793457031 125.26600646972655 0.04400000348687172
  endloop
endfacet
facet normal -0.6556479028790958 -0.7550667701933675 3.0960639557488973e-32
  outer loop
    vertex -91.74200439453125 125.7540054321289 0.04400000348687172
    vertex -91.18000793457031 125.26600646972655 25.998001098632812
    vertex -91.74200439453125 125.7540054321289 25.998001098632812
  endloop
endfacet
facet normal -0.5441341108293809 -0.8389982535332952 -5.138959494065468e-32
  outer loop
    vertex -90.55400085449217 124.8600082397461 25.998001098632812
    vertex -91.18000793457031 125.26600646972655 0.04400000348687172
    vertex -90.55400085449217 124.8600082397461 0.04400000348687172
  endloop
endfacet
facet normal -0.5441341108293809 -0.8389982535332952 -5.138959494065468e-32
  outer loop
    vertex -91.18000793457031 125.26600646972655 0.04400000348687172
    vertex -90.55400085449217 124.8600082397461 25.998001098632812
    vertex -91.18000793457031 125.26600646972655 25.998001098632812
  endloop
endfacet
facet normal 0.7463660837441032 0.6655356256703998 -3.524448289282031e-32
  outer loop
    vertex -83.76400756835936 133.89401245117188 0.04400000348687172
    vertex -83.27000427246094 133.3400115966797 25.998001098632812
    vertex -83.27000427246094 133.3400115966797 0.04400000348687172
  endloop
endfacet
facet normal 0.7463660837441032 0.6655356256703998 -3.524448289282031e-32
  outer loop
    vertex -83.27000427246094 133.3400115966797 25.998001098632812
    vertex -83.76400756835936 133.89401245117188 0.04400000348687172
    vertex -83.76400756835936 133.89401245117188 25.998001098632812
  endloop
endfacet
facet normal -0.44828642489641113 0.8938899715589131 -1.9819784224585834e-19
  outer loop
    vertex -90.65400695800781 134.73200988769528 2.5400002002716064
    vertex -89.98800659179686 135.06600952148438 0.04400000348687172
    vertex -90.65400695800781 134.73200988769528 0.04400000348687172
  endloop
endfacet
facet normal -0.44828642489641113 0.8938899715589131 -1.9819784224585834e-19
  outer loop
    vertex -89.98800659179686 135.06600952148438 0.04400000348687172
    vertex -90.65400695800781 134.73200988769528 2.5400002002716064
    vertex -89.98800659179686 135.06600952148438 25.998001098632812
  endloop
endfacet
facet normal -0.44828642489641113 0.8938899715589131 -1.9819784224585834e-19
  outer loop
    vertex -89.98800659179686 135.06600952148438 25.998001098632812
    vertex -90.65400695800781 134.73200988769528 2.5400002002716064
    vertex -90.65400695800781 134.73200988769528 25.998001098632812
  endloop
endfacet
facet normal -0.9785780204779112 -0.205876316844685 1.7102730260803551e-19
  outer loop
    vertex -93.39800262451172 129.0240020751953 25.998001098632812
    vertex -93.24400329589842 128.29200744628906 0.04400000348687172
    vertex -93.24400329589842 128.29200744628906 25.998001098632812
  endloop
endfacet
facet normal -0.9785780204779112 -0.205876316844685 1.7102730260803551e-19
  outer loop
    vertex -93.24400329589842 128.29200744628906 0.04400000348687172
    vertex -93.39800262451172 129.0240020751953 25.998001098632812
    vertex -93.39800262451172 129.0240020751953 0.04400000348687172
  endloop
endfacet
facet normal 0.07258503174498272 -0.997362227661836 -9.419376559673546e-32
  outer loop
    vertex -86.95600128173828 124.17800903320311 25.998001098632812
    vertex -87.69800567626953 124.12400817871092 0.04400000348687172
    vertex -86.95600128173828 124.17800903320311 0.04400000348687172
  endloop
endfacet
facet normal 0.07258503174498272 -0.997362227661836 -9.419376559673546e-32
  outer loop
    vertex -87.69800567626953 124.12400817871092 0.04400000348687172
    vertex -86.95600128173828 124.17800903320311 25.998001098632812
    vertex -87.69800567626953 124.12400817871092 25.998001098632812
  endloop
endfacet
facet normal 0.6529897047573328 0.7573667839831183 6.167023121698604e-32
  outer loop
    vertex -84.33000183105469 134.3820037841797 25.998001098632812
    vertex -83.76400756835936 133.89401245117188 0.04400000348687172
    vertex -84.33000183105469 134.3820037841797 0.04400000348687172
  endloop
endfacet
facet normal 0.6529897047573328 0.7573667839831183 6.167023121698604e-32
  outer loop
    vertex -83.76400756835936 133.89401245117188 0.04400000348687172
    vertex -84.33000183105469 134.3820037841797 25.998001098632812
    vertex -83.76400756835936 133.89401245117188 25.998001098632812
  endloop
endfacet
facet normal 0.8928136221422024 0.45042628266712037 -3.708428144308741e-19
  outer loop
    vertex -82.8460006713867 132.72399902343747 0.04400000348687172
    vertex -82.51000213623045 132.05799865722656 25.998001098632812
    vertex -82.51000213623045 132.05799865722656 0.04400000348687172
  endloop
endfacet
facet normal 0.8928136221422024 0.45042628266712037 -3.708428144308741e-19
  outer loop
    vertex -82.51000213623045 132.05799865722656 25.998001098632812
    vertex -82.8460006713867 132.72399902343747 0.04400000348687172
    vertex -82.8460006713867 132.72399902343747 25.998001098632812
  endloop
endfacet
facet normal -0.8274750941321652 -0.561502420823779 0.0
  outer loop
    vertex -92.66200256347655 126.92200469970703 25.998001098632812
    vertex -92.24400329589844 126.3060073852539 0.04400000348687172
    vertex -92.24400329589844 126.3060073852539 25.998001098632812
  endloop
endfacet
facet normal -0.8274750941321652 -0.561502420823779 0.0
  outer loop
    vertex -92.24400329589844 126.3060073852539 0.04400000348687172
    vertex -92.66200256347655 126.92200469970703 25.998001098632812
    vertex -92.66200256347655 126.92200469970703 0.04400000348687172
  endloop
endfacet
facet normal -0.9237265214926196 0.38305257780908464 -0.00019006567329583036
  outer loop
    vertex -93.04000091552733 131.95201110839844 25.998001098632812
    vertex -93.03600311279297 131.95001220703125 2.5400002002716064
    vertex -93.07000732421874 131.86801147460938 2.5400002002716064
  endloop
endfacet
facet normal -0.9486843203346912 0.31622469914778206 9.094106985941941e-19
  outer loop
    vertex -93.04000091552733 131.95201110839844 25.998001098632812
    vertex -93.2760009765625 131.24400329589844 2.5400002002716064
    vertex -93.2760009765625 131.24400329589844 25.998001098632812
  endloop
endfacet
facet normal -0.9495965076588831 0.31347482218842204 9.217369562708778e-05
  outer loop
    vertex -93.04000091552733 131.95201110839844 25.998001098632812
    vertex -93.07000732421874 131.86801147460938 2.5400002002716064
    vertex -93.2760009765625 131.24400329589844 2.5400002002716064
  endloop
endfacet
facet normal -0.9973632278653759 -0.07257128703346347 -5.150405782557138e-07
  outer loop
    vertex -93.45200347900389 129.76600646972656 25.998001098632812
    vertex -93.39800262451172 129.0240020751953 0.04400000348687172
    vertex -93.39800262451172 129.0240020751953 25.998001098632812
  endloop
endfacet
facet normal -0.9973632278653759 -0.07257128703346347 -5.150405782557138e-07
  outer loop
    vertex -93.39800262451172 129.0240020751953 0.04400000348687172
    vertex -93.45200347900389 129.76600646972656 25.998001098632812
    vertex -93.44600677490234 129.6840057373047 2.5400002002716064
  endloop
endfacet
facet normal -0.9973632278653759 -0.07257128703346347 -5.150405782557138e-07
  outer loop
    vertex -93.44600677490234 129.6840057373047 2.5400002002716064
    vertex -93.45200347900389 129.76600646972656 25.998001098632812
    vertex -93.45200347900389 129.76600646972656 2.5400002002716064
  endloop
endfacet
facet normal -0.9973632278653759 -0.07257128703346347 -5.150405782557138e-07
  outer loop
    vertex -93.44600677490234 129.6840057373047 0.04400000348687172
    vertex -93.39800262451172 129.0240020751953 0.04400000348687172
    vertex -93.44600677490234 129.6840057373047 2.5400002002716064
  endloop
endfacet
facet normal -0.3307108632334323 0.9437321256264397 -0.0
  outer loop
    vertex -89.98800659179686 135.06600952148438 25.998001098632812
    vertex -89.28600311279295 135.31201171875 0.04400000348687172
    vertex -89.98800659179686 135.06600952148438 0.04400000348687172
  endloop
endfacet
facet normal -0.3307108632334323 0.9437321256264397 -0.0
  outer loop
    vertex -89.28600311279295 135.31201171875 0.04400000348687172
    vertex -89.98800659179686 135.06600952148438 25.998001098632812
    vertex -89.28600311279295 135.31201171875 25.998001098632812
  endloop
endfacet
facet normal 0.1826697409920605 0.9831743312993345 -0.0
  outer loop
    vertex -87.06600189208983 135.48001098632812 25.998001098632812
    vertex -86.3340072631836 135.34400939941406 0.04400000348687172
    vertex -87.06600189208983 135.48001098632812 0.04400000348687172
  endloop
endfacet
facet normal 0.1826697409920605 0.9831743312993345 -0.0
  outer loop
    vertex -86.3340072631836 135.34400939941406 0.04400000348687172
    vertex -87.06600189208983 135.48001098632812 25.998001098632812
    vertex -86.3340072631836 135.34400939941406 25.998001098632812
  endloop
endfacet
facet normal -0.7398206894992061 -0.6728040928746787 0.0
  outer loop
    vertex -92.24400329589844 126.3060073852539 25.998001098632812
    vertex -91.74200439453125 125.7540054321289 0.04400000348687172
    vertex -91.74200439453125 125.7540054321289 25.998001098632812
  endloop
endfacet
facet normal -0.7398206894992061 -0.6728040928746787 0.0
  outer loop
    vertex -91.74200439453125 125.7540054321289 0.04400000348687172
    vertex -92.24400329589844 126.3060073852539 25.998001098632812
    vertex -92.24400329589844 126.3060073852539 0.04400000348687172
  endloop
endfacet
facet normal -0.179114285183264 -0.983828274061733 0.0
  outer loop
    vertex -88.44000244140625 124.16600799560547 25.998001098632812
    vertex -89.1760025024414 124.3000030517578 0.04400000348687172
    vertex -88.44000244140625 124.16600799560547 0.04400000348687172
  endloop
endfacet
facet normal -0.179114285183264 -0.983828274061733 0.0
  outer loop
    vertex -89.1760025024414 124.3000030517578 0.04400000348687172
    vertex -88.44000244140625 124.16600799560547 25.998001098632812
    vertex -89.1760025024414 124.3000030517578 25.998001098632812
  endloop
endfacet
facet normal -0.9440249100533887 -0.32987417176658695 3.921141499802204e-19
  outer loop
    vertex -93.24400329589842 128.29200744628906 25.998001098632812
    vertex -92.9980010986328 127.58800506591795 0.04400000348687172
    vertex -92.9980010986328 127.58800506591795 25.998001098632812
  endloop
endfacet
facet normal -0.9440249100533887 -0.32987417176658695 3.921141499802204e-19
  outer loop
    vertex -92.9980010986328 127.58800506591795 0.04400000348687172
    vertex -93.24400329589842 128.29200744628906 25.998001098632812
    vertex -93.24400329589842 128.29200744628906 0.04400000348687172
  endloop
endfacet
facet normal 0.8381993196716822 -0.5453640073399868 3.152480139578763e-32
  outer loop
    vertex -82.78800201416014 127.02200317382811 2.5400002002716064
    vertex -83.19400024414062 126.3980026245117 25.998001098632812
    vertex -83.19400024414062 126.3980026245117 2.5400002002716064
  endloop
endfacet
facet normal 0.8381993196716822 -0.5453640073399868 3.152480139578763e-32
  outer loop
    vertex -83.19400024414062 126.3980026245117 25.998001098632812
    vertex -82.78800201416014 127.02200317382811 2.5400002002716064
    vertex -82.78800201416014 127.02200317382811 25.998001098632812
  endloop
endfacet
facet normal -0.8369685323078513 0.5472510172913718 2.419050982500938e-32
  outer loop
    vertex -92.3080062866211 133.2480010986328 25.998001098632812
    vertex -92.71600341796875 132.62400817871094 2.5400002002716064
    vertex -92.71600341796875 132.62400817871094 25.998001098632812
  endloop
endfacet
facet normal -0.8369685323078513 0.5472510172913718 2.419050982500938e-32
  outer loop
    vertex -92.71600341796875 132.62400817871094 2.5400002002716064
    vertex -92.3080062866211 133.2480010986328 25.998001098632812
    vertex -92.3080062866211 133.2480010986328 2.5400002002716064
  endloop
endfacet
facet normal -0.7588818489194373 0.6512283312177202 7.717201883953928e-19
  outer loop
    vertex -91.82400512695311 133.81201171875 25.998001098632812
    vertex -92.3080062866211 133.2480010986328 2.5400002002716064
    vertex -92.3080062866211 133.2480010986328 25.998001098632812
  endloop
endfacet
facet normal -0.7588818489194373 0.6512283312177202 7.717201883953928e-19
  outer loop
    vertex -92.3080062866211 133.2480010986328 2.5400002002716064
    vertex -91.82400512695311 133.81201171875 25.998001098632812
    vertex -91.82400512695311 133.81201171875 2.5400002002716064
  endloop
endfacet
facet normal -0.9987050327403189 0.05087492092533008 -2.9408280645803388e-33
  outer loop
    vertex -93.41400146484375 130.5120086669922 25.998001098632812
    vertex -93.45200347900389 129.76600646972656 2.5400002002716064
    vertex -93.45200347900389 129.76600646972656 25.998001098632812
  endloop
endfacet
facet normal -0.9987050327403189 0.05087492092533008 -2.9408280645803388e-33
  outer loop
    vertex -93.45200347900389 129.76600646972656 2.5400002002716064
    vertex -93.41400146484375 130.5120086669922 25.998001098632812
    vertex -93.41400146484375 130.5120086669922 2.5400002002716064
  endloop
endfacet
facet normal -0.9826889653161027 0.1852630493270784 1.8839722617293318e-19
  outer loop
    vertex -93.2760009765625 131.24400329589844 25.998001098632812
    vertex -93.41400146484375 130.5120086669922 2.5400002002716064
    vertex -93.41400146484375 130.5120086669922 25.998001098632812
  endloop
endfacet
facet normal -0.9826889653161027 0.1852630493270784 1.8839722617293318e-19
  outer loop
    vertex -93.41400146484375 130.5120086669922 2.5400002002716064
    vertex -93.2760009765625 131.24400329589844 25.998001098632812
    vertex -93.2760009765625 131.24400329589844 2.5400002002716064
  endloop
endfacet
facet normal 0.7548872901773995 -0.655854541135931 -1.6093559688915522e-32
  outer loop
    vertex -83.19400024414062 126.3980026245117 2.5400002002716064
    vertex -83.68400573730469 125.83400726318358 25.998001098632812
    vertex -83.68400573730469 125.83400726318358 2.5400002002716064
  endloop
endfacet
facet normal 0.7548872901773995 -0.655854541135931 -1.6093559688915522e-32
  outer loop
    vertex -83.68400573730469 125.83400726318358 25.998001098632812
    vertex -83.19400024414062 126.3980026245117 2.5400002002716064
    vertex -83.19400024414062 126.3980026245117 25.998001098632812
  endloop
endfacet
facet normal -0.6685198597177976 0.7436942901239032 7.562756949586345e-19
  outer loop
    vertex -91.82400512695311 133.81201171875 25.998001098632812
    vertex -91.27000427246094 134.3100128173828 2.5400002002716064
    vertex -91.82400512695311 133.81201171875 2.5400002002716064
  endloop
endfacet
facet normal -0.6685198597177976 0.7436942901239032 7.562756949586345e-19
  outer loop
    vertex -91.27000427246094 134.3100128173828 2.5400002002716064
    vertex -91.82400512695311 133.81201171875 25.998001098632812
    vertex -91.27000427246094 134.3100128173828 25.998001098632812
  endloop
endfacet
facet normal -1.5816599702364025e-17 2.527358658198171e-17 1.0
  outer loop
    vertex -93.39800262451172 129.0240020751953 25.998001098632812
    vertex -93.41400146484375 130.5120086669922 25.998001098632812
    vertex -93.45200347900389 129.76600646972656 25.998001098632812
  endloop
endfacet
facet normal -1.5816599702364025e-17 2.527358658198171e-17 1.0
  outer loop
    vertex -93.41400146484375 130.5120086669922 25.998001098632812
    vertex -93.39800262451172 129.0240020751953 25.998001098632812
    vertex -93.2760009765625 131.24400329589844 25.998001098632812
  endloop
endfacet
facet normal -1.5816599702364025e-17 2.527358658198171e-17 1.0
  outer loop
    vertex -93.2760009765625 131.24400329589844 25.998001098632812
    vertex -93.39800262451172 129.0240020751953 25.998001098632812
    vertex -93.24400329589842 128.29200744628906 25.998001098632812
  endloop
endfacet
facet normal -1.5816599702364025e-17 2.527358658198171e-17 1.0
  outer loop
    vertex -93.2760009765625 131.24400329589844 25.998001098632812
    vertex -93.24400329589842 128.29200744628906 25.998001098632812
    vertex -93.04000091552733 131.95201110839844 25.998001098632812
  endloop
endfacet
facet normal -1.5816599702364025e-17 2.527358658198171e-17 1.0
  outer loop
    vertex -93.04000091552733 131.95201110839844 25.998001098632812
    vertex -93.24400329589842 128.29200744628906 25.998001098632812
    vertex -92.9980010986328 127.58800506591795 25.998001098632812
  endloop
endfacet
facet normal -1.5816599702364025e-17 2.527358658198171e-17 1.0
  outer loop
    vertex -93.04000091552733 131.95201110839844 25.998001098632812
    vertex -92.9980010986328 127.58800506591795 25.998001098632812
    vertex -92.71600341796875 132.62400817871094 25.998001098632812
  endloop
endfacet
facet normal -1.5816599702364025e-17 2.527358658198171e-17 1.0
  outer loop
    vertex -92.71600341796875 132.62400817871094 25.998001098632812
    vertex -92.9980010986328 127.58800506591795 25.998001098632812
    vertex -92.66200256347655 126.92200469970703 25.998001098632812
  endloop
endfacet
facet normal -1.5816599702364025e-17 2.527358658198171e-17 1.0
  outer loop
    vertex -92.71600341796875 132.62400817871094 25.998001098632812
    vertex -92.66200256347655 126.92200469970703 25.998001098632812
    vertex -92.3080062866211 133.2480010986328 25.998001098632812
  endloop
endfacet
facet normal -1.5816599702364025e-17 2.527358658198171e-17 1.0
  outer loop
    vertex -92.3080062866211 133.2480010986328 25.998001098632812
    vertex -92.66200256347655 126.92200469970703 25.998001098632812
    vertex -92.24400329589844 126.3060073852539 25.998001098632812
  endloop
endfacet
facet normal -1.5816599702364025e-17 2.527358658198171e-17 1.0
  outer loop
    vertex -92.3080062866211 133.2480010986328 25.998001098632812
    vertex -92.24400329589844 126.3060073852539 25.998001098632812
    vertex -91.82400512695311 133.81201171875 25.998001098632812
  endloop
endfacet
facet normal -1.5816599702364025e-17 2.527358658198171e-17 1.0
  outer loop
    vertex -91.82400512695311 133.81201171875 25.998001098632812
    vertex -92.24400329589844 126.3060073852539 25.998001098632812
    vertex -91.74200439453125 125.7540054321289 25.998001098632812
  endloop
endfacet
facet normal -1.5816599702364025e-17 2.527358658198171e-17 1.0
  outer loop
    vertex -91.82400512695311 133.81201171875 25.998001098632812
    vertex -91.74200439453125 125.7540054321289 25.998001098632812
    vertex -91.27000427246094 134.3100128173828 25.998001098632812
  endloop
endfacet
facet normal -1.5816599702364025e-17 2.527358658198171e-17 1.0
  outer loop
    vertex -91.27000427246094 134.3100128173828 25.998001098632812
    vertex -91.74200439453125 125.7540054321289 25.998001098632812
    vertex -91.18000793457031 125.26600646972655 25.998001098632812
  endloop
endfacet
facet normal -1.5816599702364025e-17 2.527358658198171e-17 1.0
  outer loop
    vertex -91.27000427246094 134.3100128173828 25.998001098632812
    vertex -91.18000793457031 125.26600646972655 25.998001098632812
    vertex -90.65400695800781 134.73200988769528 25.998001098632812
  endloop
endfacet
facet normal -1.5816599702364025e-17 2.527358658198171e-17 1.0
  outer loop
    vertex -90.65400695800781 134.73200988769528 25.998001098632812
    vertex -91.18000793457031 125.26600646972655 25.998001098632812
    vertex -90.55400085449217 124.8600082397461 25.998001098632812
  endloop
endfacet
facet normal -1.5816599702364025e-17 2.527358658198171e-17 1.0
  outer loop
    vertex -90.65400695800781 134.73200988769528 25.998001098632812
    vertex -90.55400085449217 124.8600082397461 25.998001098632812
    vertex -89.98800659179686 135.06600952148438 25.998001098632812
  endloop
endfacet
facet normal -1.5816599702364025e-17 2.527358658198171e-17 1.0
  outer loop
    vertex -89.98800659179686 135.06600952148438 25.998001098632812
    vertex -90.55400085449217 124.8600082397461 25.998001098632812
    vertex -89.95600433349608 127.62611140007527 25.998001098632823
  endloop
endfacet
facet normal -1.5816599702364025e-17 2.527358658198171e-17 1.0
  outer loop
    vertex -89.95600433349608 127.62611140007527 25.998001098632823
    vertex -90.55400085449217 124.8600082397461 25.998001098632812
    vertex -89.88200378417969 124.53400421142578 25.998001098632812
  endloop
endfacet
facet normal -1.5816599702364025e-17 2.527358658198171e-17 1.0
  outer loop
    vertex -89.95600433349608 127.62611140007527 25.998001098632823
    vertex -89.88200378417969 124.53400421142578 25.998001098632812
    vertex -89.47813139507423 127.24572203272521 25.998001098632823
  endloop
endfacet
facet normal -1.5816599702364025e-17 2.527358658198171e-17 1.0
  outer loop
    vertex -89.47813139507423 127.24572203272521 25.998001098632823
    vertex -89.88200378417969 124.53400421142578 25.998001098632812
    vertex -89.1760025024414 124.3000030517578 25.998001098632812
  endloop
endfacet
facet normal -1.5816599702364025e-17 2.527358658198171e-17 1.0
  outer loop
    vertex -89.47813139507423 127.24572203272521 25.998001098632823
    vertex -89.1760025024414 124.3000030517578 25.998001098632812
    vertex -89.00179162204847 126.98196650052773 25.998001098632823
  endloop
endfacet
facet normal -1.5816599702364025e-17 2.527358658198171e-17 1.0
  outer loop
    vertex -89.00179162204847 126.98196650052773 25.998001098632823
    vertex -89.1760025024414 124.3000030517578 25.998001098632812
    vertex -88.44000244140625 124.16600799560547 25.998001098632812
  endloop
endfacet
facet normal -1.5816599702364025e-17 2.527358658198171e-17 1.0
  outer loop
    vertex -89.00179162204847 126.98196650052773 25.998001098632823
    vertex -88.44000244140625 124.16600799560547 25.998001098632812
    vertex -88.49025930876658 126.81080277652717 25.998001098632823
  endloop
endfacet
facet normal -1.5816599702364025e-17 2.527358658198171e-17 1.0
  outer loop
    vertex -88.49025930876658 126.81080277652717 25.998001098632823
    vertex -88.44000244140625 124.16600799560547 25.998001098632812
    vertex -87.95481306864747 126.7300912189658 25.998001098632823
  endloop
endfacet
facet normal -1.5816599702364025e-17 2.527358658198171e-17 1.0
  outer loop
    vertex -87.95481306864747 126.7300912189658 25.998001098632823
    vertex -88.44000244140625 124.16600799560547 25.998001098632812
    vertex -87.69800567626953 124.12400817871092 25.998001098632812
  endloop
endfacet
facet normal -1.5816599702364025e-17 2.527358658198171e-17 1.0
  outer loop
    vertex -87.95481306864747 126.7300912189658 25.998001098632823
    vertex -87.69800567626953 124.12400817871092 25.998001098632812
    vertex -87.68891557092718 126.73599671298126 25.998001098632823
  endloop
endfacet
facet normal -1.5816599702364025e-17 2.527358658198171e-17 1.0
  outer loop
    vertex -87.68891557092718 126.73599671298126 25.998001098632823
    vertex -87.69800567626953 124.12400817871092 25.998001098632812
    vertex -86.95600128173828 124.17800903320311 25.998001098632812
  endloop
endfacet
facet normal -1.5816599702364025e-17 2.527358658198171e-17 1.0
  outer loop
    vertex -87.68891557092718 126.73599671298126 25.998001098632823
    vertex -86.95600128173828 124.17800903320311 25.998001098632812
    vertex -87.41343543691004 126.73992999881847 25.998001098632823
  endloop
endfacet
facet normal -1.5816599702364025e-17 2.527358658198171e-17 1.0
  outer loop
    vertex -87.41343543691004 126.73992999881847 25.998001098632823
    vertex -86.95600128173828 124.17800903320311 25.998001098632812
    vertex -86.88614279158432 126.84814301369718 25.998001098632823
  endloop
endfacet
facet normal -1.5816599702364025e-17 2.527358658198171e-17 1.0
  outer loop
    vertex -86.88614279158432 126.84814301369718 25.998001098632823
    vertex -86.95600128173828 124.17800903320311 25.998001098632812
    vertex -86.22400665283203 124.33400726318358 25.998001098632812
  endloop
endfacet
facet normal -1.5816599702364025e-17 2.527358658198171e-17 1.0
  outer loop
    vertex -86.88614279158432 126.84814301369718 25.998001098632823
    vertex -86.22400665283203 124.33400726318358 25.998001098632812
    vertex -86.38213066891903 127.04305914446259 25.998001098632823
  endloop
endfacet
facet normal -1.5816599702364025e-17 2.527358658198171e-17 1.0
  outer loop
    vertex -86.38213066891903 127.04305914446259 25.998001098632823
    vertex -86.22400665283203 124.33400726318358 25.998001098632812
    vertex -85.9235422564108 127.32057424626724 25.998001098632823
  endloop
endfacet
facet normal -1.5816599702364025e-17 2.527358658198171e-17 1.0
  outer loop
    vertex -85.9235422564108 127.32057424626724 25.998001098632823
    vertex -86.22400665283203 124.33400726318358 25.998001098632812
    vertex -85.51800537109375 124.58000946044922 25.998001098632812
  endloop
endfacet
facet normal -1.5816599702364025e-17 2.527358658198171e-17 1.0
  outer loop
    vertex -85.9235422564108 127.32057424626724 25.998001098632823
    vertex -85.51800537109375 124.58000946044922 25.998001098632812
    vertex -85.55200653076172 127.64282255451609 25.998001098632823
  endloop
endfacet
facet normal -1.5816599702364025e-17 2.527358658198171e-17 1.0
  outer loop
    vertex -85.55200653076172 127.64282255451609 25.998001098632823
    vertex -85.51800537109375 124.58000946044922 25.998001098632812
    vertex -85.55200653076172 132.01989966467062 25.998001098632823
  endloop
endfacet
facet normal -1.5816599702364025e-17 2.527358658198171e-17 1.0
  outer loop
    vertex -89.98800659179686 135.06600952148438 25.998001098632812
    vertex -89.95600433349608 132.00125936053462 25.998001098632823
    vertex -89.28600311279295 135.31201171875 25.998001098632812
  endloop
endfacet
facet normal -1.5816599702364025e-17 2.527358658198171e-17 1.0
  outer loop
    vertex -89.95600433349608 132.00125936053462 25.998001098632823
    vertex -89.98800659179686 135.06600952148438 25.998001098632812
    vertex -89.95600433349608 127.62611140007527 25.998001098632823
  endloop
endfacet
facet normal -1.5816599702364025e-17 2.527358658198171e-17 1.0
  outer loop
    vertex -89.28600311279295 135.31201171875 25.998001098632812
    vertex -89.95600433349608 132.00125936053462 25.998001098632823
    vertex -89.5863300679106 132.32355098618675 25.998001098632823
  endloop
endfacet
facet normal -1.5816599702364025e-17 2.527358658198171e-17 1.0
  outer loop
    vertex -89.28600311279295 135.31201171875 25.998001098632812
    vertex -89.5863300679106 132.32355098618675 25.998001098632823
    vertex -89.12577080174421 132.60499803146584 25.998001098632823
  endloop
endfacet
facet normal -1.5816599702364025e-17 2.527358658198171e-17 1.0
  outer loop
    vertex -89.28600311279295 135.31201171875 25.998001098632812
    vertex -89.12577080174421 132.60499803146584 25.998001098632823
    vertex -88.5560073852539 135.46800231933594 25.998001098632812
  endloop
endfacet
facet normal -1.5816599702364025e-17 2.527358658198171e-17 1.0
  outer loop
    vertex -88.5560073852539 135.46800231933594 25.998001098632812
    vertex -89.12577080174421 132.60499803146584 25.998001098632823
    vertex -88.62206222001727 132.7997892683041 25.998001098632823
  endloop
endfacet
facet normal -1.5816599702364025e-17 2.527358658198171e-17 1.0
  outer loop
    vertex -88.5560073852539 135.46800231933594 25.998001098632812
    vertex -88.62206222001727 132.7997892683041 25.998001098632823
    vertex -88.0905981941878 132.9041162745471 25.998001098632823
  endloop
endfacet
facet normal -1.5816599702364025e-17 2.527358658198171e-17 1.0
  outer loop
    vertex -88.5560073852539 135.46800231933594 25.998001098632812
    vertex -88.0905981941878 132.9041162745471 25.998001098632823
    vertex -87.81200408935545 135.52200317382812 25.998001098632812
  endloop
endfacet
facet normal -1.5816599702364025e-17 2.527358658198171e-17 1.0
  outer loop
    vertex -87.81200408935545 135.52200317382812 25.998001098632812
    vertex -88.0905981941878 132.9041162745471 25.998001098632823
    vertex -87.55120695274405 132.91592134828747 25.998001098632823
  endloop
endfacet
facet normal -1.5816599702364025e-17 2.527358658198171e-17 1.0
  outer loop
    vertex -87.81200408935545 135.52200317382812 25.998001098632812
    vertex -87.55120695274405 132.91592134828747 25.998001098632823
    vertex -87.06600189208983 135.48001098632812 25.998001098632812
  endloop
endfacet
facet normal -1.5816599702364025e-17 2.527358658198171e-17 1.0
  outer loop
    vertex -87.06600189208983 135.48001098632812 25.998001098632812
    vertex -87.55120695274405 132.91592134828747 25.998001098632823
    vertex -87.01575254415827 132.83520855943596 25.998001098632823
  endloop
endfacet
facet normal -1.5816599702364025e-17 2.527358658198171e-17 1.0
  outer loop
    vertex -87.06600189208983 135.48001098632812 25.998001098632812
    vertex -87.01575254415827 132.83520855943596 25.998001098632823
    vertex -86.3340072631836 135.34400939941406 25.998001098632812
  endloop
endfacet
facet normal -1.5816599702364025e-17 2.527358658198171e-17 1.0
  outer loop
    vertex -86.3340072631836 135.34400939941406 25.998001098632812
    vertex -87.01575254415827 132.83520855943596 25.998001098632823
    vertex -86.50425504228464 132.66405899478133 25.998001098632823
  endloop
endfacet
facet normal -1.5816599702364025e-17 2.527358658198171e-17 1.0
  outer loop
    vertex -86.3340072631836 135.34400939941406 25.998001098632812
    vertex -86.50425504228464 132.66405899478133 25.998001098632823
    vertex -86.02991421314718 132.40030939610557 25.998001098632823
  endloop
endfacet
facet normal -1.5816599702364025e-17 2.527358658198171e-17 1.0
  outer loop
    vertex -86.3340072631836 135.34400939941406 25.998001098632812
    vertex -86.02991421314718 132.40030939610557 25.998001098632823
    vertex -85.6240005493164 135.11199951171875 25.998001098632812
  endloop
endfacet
facet normal -1.5816599702364025e-17 2.527358658198171e-17 1.0
  outer loop
    vertex -85.6240005493164 135.11199951171875 25.998001098632812
    vertex -86.02991421314718 132.40030939610557 25.998001098632823
    vertex -85.55200653076172 132.01989966467062 25.998001098632823
  endloop
endfacet
facet normal -1.5816599702364025e-17 2.527358658198171e-17 1.0
  outer loop
    vertex -85.6240005493164 135.11199951171875 25.998001098632812
    vertex -85.55200653076172 132.01989966467062 25.998001098632823
    vertex -84.95600128173827 134.78601074218747 25.998001098632812
  endloop
endfacet
facet normal -1.5816599702364025e-17 2.527358658198171e-17 1.0
  outer loop
    vertex -84.95600128173827 134.78601074218747 25.998001098632812
    vertex -85.55200653076172 132.01989966467062 25.998001098632823
    vertex -85.51800537109375 124.58000946044922 25.998001098632812
  endloop
endfacet
facet normal -1.5816599702364025e-17 2.527358658198171e-17 1.0
  outer loop
    vertex -84.95600128173827 134.78601074218747 25.998001098632812
    vertex -85.51800537109375 124.58000946044922 25.998001098632812
    vertex -84.85400390625 124.91400909423827 25.998001098632812
  endloop
endfacet
facet normal -1.5816599702364025e-17 2.527358658198171e-17 1.0
  outer loop
    vertex -84.95600128173827 134.78601074218747 25.998001098632812
    vertex -84.85400390625 124.91400909423827 25.998001098632812
    vertex -84.33000183105469 134.3820037841797 25.998001098632812
  endloop
endfacet
facet normal -1.5816599702364025e-17 2.527358658198171e-17 1.0
  outer loop
    vertex -84.33000183105469 134.3820037841797 25.998001098632812
    vertex -84.85400390625 124.91400909423827 25.998001098632812
    vertex -84.23600769042969 125.33400726318358 25.998001098632812
  endloop
endfacet
facet normal -1.5816599702364025e-17 2.527358658198171e-17 1.0
  outer loop
    vertex -84.33000183105469 134.3820037841797 25.998001098632812
    vertex -84.23600769042969 125.33400726318358 25.998001098632812
    vertex -83.76400756835936 133.89401245117188 25.998001098632812
  endloop
endfacet
facet normal -1.5816599702364025e-17 2.527358658198171e-17 1.0
  outer loop
    vertex -83.76400756835936 133.89401245117188 25.998001098632812
    vertex -84.23600769042969 125.33400726318358 25.998001098632812
    vertex -83.68400573730469 125.83400726318358 25.998001098632812
  endloop
endfacet
facet normal -1.5816599702364025e-17 2.527358658198171e-17 1.0
  outer loop
    vertex -83.76400756835936 133.89401245117188 25.998001098632812
    vertex -83.68400573730469 125.83400726318358 25.998001098632812
    vertex -83.27000427246094 133.3400115966797 25.998001098632812
  endloop
endfacet
facet normal -1.5816599702364025e-17 2.527358658198171e-17 1.0
  outer loop
    vertex -83.27000427246094 133.3400115966797 25.998001098632812
    vertex -83.68400573730469 125.83400726318358 25.998001098632812
    vertex -83.19400024414062 126.3980026245117 25.998001098632812
  endloop
endfacet
facet normal -1.5816599702364025e-17 2.527358658198171e-17 1.0
  outer loop
    vertex -83.27000427246094 133.3400115966797 25.998001098632812
    vertex -83.19400024414062 126.3980026245117 25.998001098632812
    vertex -82.8460006713867 132.72399902343747 25.998001098632812
  endloop
endfacet
facet normal -1.5816599702364025e-17 2.527358658198171e-17 1.0
  outer loop
    vertex -82.8460006713867 132.72399902343747 25.998001098632812
    vertex -83.19400024414062 126.3980026245117 25.998001098632812
    vertex -82.78800201416014 127.02200317382811 25.998001098632812
  endloop
endfacet
facet normal -1.5816599702364025e-17 2.527358658198171e-17 1.0
  outer loop
    vertex -82.8460006713867 132.72399902343747 25.998001098632812
    vertex -82.78800201416014 127.02200317382811 25.998001098632812
    vertex -82.51000213623045 132.05799865722656 25.998001098632812
  endloop
endfacet
facet normal -1.5816599702364025e-17 2.527358658198171e-17 1.0
  outer loop
    vertex -82.51000213623045 132.05799865722656 25.998001098632812
    vertex -82.78800201416014 127.02200317382811 25.998001098632812
    vertex -82.46400451660156 127.69400787353514 25.998001098632812
  endloop
endfacet
facet normal -1.5816599702364025e-17 2.527358658198171e-17 1.0
  outer loop
    vertex -82.51000213623045 132.05799865722656 25.998001098632812
    vertex -82.46400451660156 127.69400787353514 25.998001098632812
    vertex -82.26200103759764 131.35400390625 25.998001098632812
  endloop
endfacet
facet normal -1.5816599702364025e-17 2.527358658198171e-17 1.0
  outer loop
    vertex -82.26200103759764 131.35400390625 25.998001098632812
    vertex -82.46400451660156 127.69400787353514 25.998001098632812
    vertex -82.23200225830078 128.40200805664062 25.998001098632812
  endloop
endfacet
facet normal -1.5816599702364025e-17 2.527358658198171e-17 1.0
  outer loop
    vertex -82.26200103759764 131.35400390625 25.998001098632812
    vertex -82.23200225830078 128.40200805664062 25.998001098632812
    vertex -82.11000061035156 130.62200927734375 25.998001098632812
  endloop
endfacet
facet normal -1.5816599702364025e-17 2.527358658198171e-17 1.0
  outer loop
    vertex -82.11000061035156 130.62200927734375 25.998001098632812
    vertex -82.23200225830078 128.40200805664062 25.998001098632812
    vertex -82.09800720214844 129.13600158691406 25.998001098632812
  endloop
endfacet
facet normal -1.5816599702364025e-17 2.527358658198171e-17 1.0
  outer loop
    vertex -82.11000061035156 130.62200927734375 25.998001098632812
    vertex -82.09800720214844 129.13600158691406 25.998001098632812
    vertex -82.05400085449217 129.87800598144528 25.998001098632812
  endloop
endfacet
facet normal 3.9408714318441606e-17 -4.720308328136586e-18 -1.0
  outer loop
    vertex -89.28600311279295 135.31201171875 0.04400000348687172
    vertex -89.95600433349608 132.00125936053462 0.04400000348687172
    vertex -89.98800659179686 135.06600952148438 0.04400000348687172
  endloop
endfacet
facet normal 3.9408714318441606e-17 -4.720308328136586e-18 -1.0
  outer loop
    vertex -89.95600433349608 132.00125936053462 0.04400000348687172
    vertex -89.28600311279295 135.31201171875 0.04400000348687172
    vertex -89.5863300679106 132.32355098618675 0.04400000348687172
  endloop
endfacet
facet normal 3.9408714318441606e-17 -4.720308328136586e-18 -1.0
  outer loop
    vertex -89.5863300679106 132.32355098618675 0.04400000348687172
    vertex -89.28600311279295 135.31201171875 0.04400000348687172
    vertex -89.12577080174421 132.60499803146584 0.04400000348687172
  endloop
endfacet
facet normal 3.9408714318441606e-17 -4.720308328136586e-18 -1.0
  outer loop
    vertex -89.12577080174421 132.60499803146584 0.04400000348687172
    vertex -89.28600311279295 135.31201171875 0.04400000348687172
    vertex -88.5560073852539 135.46800231933594 0.04400000348687172
  endloop
endfacet
facet normal 3.9408714318441606e-17 -4.720308328136586e-18 -1.0
  outer loop
    vertex -89.12577080174421 132.60499803146584 0.04400000348687172
    vertex -88.5560073852539 135.46800231933594 0.04400000348687172
    vertex -88.62206222001727 132.7997892683041 0.04400000348687172
  endloop
endfacet
facet normal 3.9408714318441606e-17 -4.720308328136586e-18 -1.0
  outer loop
    vertex -88.62206222001727 132.7997892683041 0.04400000348687172
    vertex -88.5560073852539 135.46800231933594 0.04400000348687172
    vertex -88.0905981941878 132.9041162745471 0.04400000348687172
  endloop
endfacet
facet normal 3.9408714318441606e-17 -4.720308328136586e-18 -1.0
  outer loop
    vertex -88.0905981941878 132.9041162745471 0.04400000348687172
    vertex -88.5560073852539 135.46800231933594 0.04400000348687172
    vertex -87.81200408935545 135.52200317382812 0.04400000348687172
  endloop
endfacet
facet normal 3.9408714318441606e-17 -4.720308328136586e-18 -1.0
  outer loop
    vertex -88.0905981941878 132.9041162745471 0.04400000348687172
    vertex -87.81200408935545 135.52200317382812 0.04400000348687172
    vertex -87.55120695274405 132.91592134828747 0.04400000348687172
  endloop
endfacet
facet normal 3.9408714318441606e-17 -4.720308328136586e-18 -1.0
  outer loop
    vertex -87.55120695274405 132.91592134828747 0.04400000348687172
    vertex -87.81200408935545 135.52200317382812 0.04400000348687172
    vertex -87.06600189208983 135.48001098632812 0.04400000348687172
  endloop
endfacet
facet normal 3.9408714318441606e-17 -4.720308328136586e-18 -1.0
  outer loop
    vertex -87.55120695274405 132.91592134828747 0.04400000348687172
    vertex -87.06600189208983 135.48001098632812 0.04400000348687172
    vertex -87.01575254415827 132.83520855943596 0.04400000348687172
  endloop
endfacet
facet normal 3.9408714318441606e-17 -4.720308328136586e-18 -1.0
  outer loop
    vertex -87.01575254415827 132.83520855943596 0.04400000348687172
    vertex -87.06600189208983 135.48001098632812 0.04400000348687172
    vertex -86.3340072631836 135.34400939941406 0.04400000348687172
  endloop
endfacet
facet normal 3.9408714318441606e-17 -4.720308328136586e-18 -1.0
  outer loop
    vertex -87.01575254415827 132.83520855943596 0.04400000348687172
    vertex -86.3340072631836 135.34400939941406 0.04400000348687172
    vertex -86.50425504228464 132.66405899478133 0.04400000348687172
  endloop
endfacet
facet normal 3.9408714318441606e-17 -4.720308328136586e-18 -1.0
  outer loop
    vertex -86.50425504228464 132.66405899478133 0.04400000348687172
    vertex -86.3340072631836 135.34400939941406 0.04400000348687172
    vertex -86.02991421314718 132.40030939610557 0.04400000348687172
  endloop
endfacet
facet normal 3.9408714318441606e-17 -4.720308328136586e-18 -1.0
  outer loop
    vertex -86.02991421314718 132.40030939610557 0.04400000348687172
    vertex -86.3340072631836 135.34400939941406 0.04400000348687172
    vertex -85.6240005493164 135.11199951171875 0.04400000348687172
  endloop
endfacet
facet normal 3.9408714318441606e-17 -4.720308328136586e-18 -1.0
  outer loop
    vertex -86.02991421314718 132.40030939610557 0.04400000348687172
    vertex -85.6240005493164 135.11199951171875 0.04400000348687172
    vertex -85.55200653076172 132.01989966467062 0.04400000348687172
  endloop
endfacet
facet normal 3.9408714318441606e-17 -4.720308328136586e-18 -1.0
  outer loop
    vertex -85.55200653076172 132.01989966467062 0.04400000348687172
    vertex -85.6240005493164 135.11199951171875 0.04400000348687172
    vertex -84.95600128173827 134.78601074218747 0.04400000348687172
  endloop
endfacet
facet normal 3.9408714318441606e-17 -4.720308328136586e-18 -1.0
  outer loop
    vertex -85.55200653076172 132.01989966467062 0.04400000348687172
    vertex -84.95600128173827 134.78601074218747 0.04400000348687172
    vertex -85.55200653076172 127.64282255451609 0.04400000348687172
  endloop
endfacet
facet normal 3.9408714318441606e-17 -4.720308328136586e-18 -1.0
  outer loop
    vertex -85.55200653076172 127.64282255451609 0.04400000348687172
    vertex -84.95600128173827 134.78601074218747 0.04400000348687172
    vertex -85.51800537109375 124.58000946044922 0.04400000348687172
  endloop
endfacet
facet normal 3.9408714318441606e-17 -4.720308328136586e-18 -1.0
  outer loop
    vertex -85.51800537109375 124.58000946044922 0.04400000348687172
    vertex -84.95600128173827 134.78601074218747 0.04400000348687172
    vertex -84.85400390625 124.91400909423827 0.04400000348687172
  endloop
endfacet
facet normal 3.9408714318441606e-17 -4.720308328136586e-18 -1.0
  outer loop
    vertex -84.85400390625 124.91400909423827 0.04400000348687172
    vertex -84.95600128173827 134.78601074218747 0.04400000348687172
    vertex -84.33000183105469 134.3820037841797 0.04400000348687172
  endloop
endfacet
facet normal 3.9408714318441606e-17 -4.720308328136586e-18 -1.0
  outer loop
    vertex -84.85400390625 124.91400909423827 0.04400000348687172
    vertex -84.33000183105469 134.3820037841797 0.04400000348687172
    vertex -84.23600769042969 125.33400726318358 0.04400000348686772
  endloop
endfacet
facet normal 3.9408714318441606e-17 -4.720308328136586e-18 -1.0
  outer loop
    vertex -84.23600769042969 125.33400726318358 0.04400000348686772
    vertex -84.33000183105469 134.3820037841797 0.04400000348687172
    vertex -83.76400756835936 133.89401245117188 0.04400000348687172
  endloop
endfacet
facet normal 3.9408714318441606e-17 -4.720308328136586e-18 -1.0
  outer loop
    vertex -84.23600769042969 125.33400726318358 0.04400000348686772
    vertex -83.76400756835936 133.89401245117188 0.04400000348687172
    vertex -83.68400573730469 125.83400726318358 0.04400000348686772
  endloop
endfacet
facet normal 3.9408714318441606e-17 -4.720308328136586e-18 -1.0
  outer loop
    vertex -83.68400573730469 125.83400726318358 0.04400000348686772
    vertex -83.76400756835936 133.89401245117188 0.04400000348687172
    vertex -83.27000427246094 133.3400115966797 0.04400000348687172
  endloop
endfacet
facet normal 3.9408714318441606e-17 -4.720308328136586e-18 -1.0
  outer loop
    vertex -83.68400573730469 125.83400726318358 0.04400000348686772
    vertex -83.27000427246094 133.3400115966797 0.04400000348687172
    vertex -83.19400024414062 126.3980026245117 0.04400000348686772
  endloop
endfacet
facet normal 3.9408714318441606e-17 -4.720308328136586e-18 -1.0
  outer loop
    vertex -83.19400024414062 126.3980026245117 0.04400000348686772
    vertex -83.27000427246094 133.3400115966797 0.04400000348687172
    vertex -82.8460006713867 132.72399902343747 0.04400000348687172
  endloop
endfacet
facet normal 3.9408714318441606e-17 -4.720308328136586e-18 -1.0
  outer loop
    vertex -83.19400024414062 126.3980026245117 0.04400000348686772
    vertex -82.8460006713867 132.72399902343747 0.04400000348687172
    vertex -82.78800201416014 127.02200317382811 0.04400000348686772
  endloop
endfacet
facet normal 3.9408714318441606e-17 -4.720308328136586e-18 -1.0
  outer loop
    vertex -82.78800201416014 127.02200317382811 0.04400000348686772
    vertex -82.8460006713867 132.72399902343747 0.04400000348687172
    vertex -82.51000213623045 132.05799865722656 0.04400000348687172
  endloop
endfacet
facet normal 3.9408714318441606e-17 -4.720308328136586e-18 -1.0
  outer loop
    vertex -82.78800201416014 127.02200317382811 0.04400000348686772
    vertex -82.51000213623045 132.05799865722656 0.04400000348687172
    vertex -82.46400451660156 127.69400787353514 0.04400000348686772
  endloop
endfacet
facet normal 3.9408714318441606e-17 -4.720308328136586e-18 -1.0
  outer loop
    vertex -82.46400451660156 127.69400787353514 0.04400000348686772
    vertex -82.51000213623045 132.05799865722656 0.04400000348687172
    vertex -82.26200103759764 131.35400390625 0.04400000348687172
  endloop
endfacet
facet normal 3.9408714318441606e-17 -4.720308328136586e-18 -1.0
  outer loop
    vertex -82.46400451660156 127.69400787353514 0.04400000348686772
    vertex -82.26200103759764 131.35400390625 0.04400000348687172
    vertex -82.23200225830078 128.40200805664062 0.04400000348686772
  endloop
endfacet
facet normal 3.9408714318441606e-17 -4.720308328136586e-18 -1.0
  outer loop
    vertex -82.23200225830078 128.40200805664062 0.04400000348686772
    vertex -82.26200103759764 131.35400390625 0.04400000348687172
    vertex -82.11000061035156 130.62200927734375 0.04400000348687172
  endloop
endfacet
facet normal 3.9408714318441606e-17 -4.720308328136586e-18 -1.0
  outer loop
    vertex -82.23200225830078 128.40200805664062 0.04400000348686772
    vertex -82.11000061035156 130.62200927734375 0.04400000348687172
    vertex -82.09800720214844 129.13600158691406 0.04400000348686772
  endloop
endfacet
facet normal 3.9408714318441606e-17 -4.720308328136586e-18 -1.0
  outer loop
    vertex -82.09800720214844 129.13600158691406 0.04400000348686772
    vertex -82.11000061035156 130.62200927734375 0.04400000348687172
    vertex -82.05400085449217 129.87800598144528 0.04400000348687172
  endloop
endfacet
facet normal 3.9408714318441606e-17 -4.720308328136586e-18 -1.0
  outer loop
    vertex -82.09800720214844 129.13600158691406 0.04400000348686772
    vertex -82.05400085449217 129.87800598144528 0.04400000348687172
    vertex -82.0560073852539 129.82400512695312 0.04400000348687172
  endloop
endfacet
facet normal 3.9408714318441606e-17 -4.720308328136586e-18 -1.0
  outer loop
    vertex -93.41400146484375 130.5120086669922 0.04400000348686772
    vertex -93.44600677490234 129.6840057373047 0.04400000348687172
    vertex -93.45200347900389 129.76600646972656 0.04400000348686772
  endloop
endfacet
facet normal 3.9408714318441606e-17 -4.720308328136586e-18 -1.0
  outer loop
    vertex -93.44600677490234 129.6840057373047 0.04400000348687172
    vertex -93.41400146484375 130.5120086669922 0.04400000348686772
    vertex -93.39800262451172 129.0240020751953 0.04400000348687172
  endloop
endfacet
facet normal 3.9408714318441606e-17 -4.720308328136586e-18 -1.0
  outer loop
    vertex -93.39800262451172 129.0240020751953 0.04400000348687172
    vertex -93.41400146484375 130.5120086669922 0.04400000348686772
    vertex -93.2760009765625 131.24400329589844 0.04400000348686772
  endloop
endfacet
facet normal 3.9408714318441606e-17 -4.720308328136586e-18 -1.0
  outer loop
    vertex -93.39800262451172 129.0240020751953 0.04400000348687172
    vertex -93.2760009765625 131.24400329589844 0.04400000348686772
    vertex -93.24400329589842 128.29200744628906 0.04400000348687172
  endloop
endfacet
facet normal 3.9408714318441606e-17 -4.720308328136586e-18 -1.0
  outer loop
    vertex -93.24400329589842 128.29200744628906 0.04400000348687172
    vertex -93.2760009765625 131.24400329589844 0.04400000348686772
    vertex -93.04000091552733 131.95201110839844 0.04400000348686772
  endloop
endfacet
facet normal 3.9408714318441606e-17 -4.720308328136586e-18 -1.0
  outer loop
    vertex -93.24400329589842 128.29200744628906 0.04400000348687172
    vertex -93.04000091552733 131.95201110839844 0.04400000348686772
    vertex -92.9980010986328 127.58800506591795 0.04400000348687172
  endloop
endfacet
facet normal 3.9408714318441606e-17 -4.720308328136586e-18 -1.0
  outer loop
    vertex -92.9980010986328 127.58800506591795 0.04400000348687172
    vertex -93.04000091552733 131.95201110839844 0.04400000348686772
    vertex -92.71600341796875 132.62400817871094 0.04400000348686772
  endloop
endfacet
facet normal 3.9408714318441606e-17 -4.720308328136586e-18 -1.0
  outer loop
    vertex -92.9980010986328 127.58800506591795 0.04400000348687172
    vertex -92.71600341796875 132.62400817871094 0.04400000348686772
    vertex -92.66200256347655 126.92200469970703 0.04400000348687172
  endloop
endfacet
facet normal 3.9408714318441606e-17 -4.720308328136586e-18 -1.0
  outer loop
    vertex -92.66200256347655 126.92200469970703 0.04400000348687172
    vertex -92.71600341796875 132.62400817871094 0.04400000348686772
    vertex -92.3080062866211 133.2480010986328 0.04400000348686772
  endloop
endfacet
facet normal 3.9408714318441606e-17 -4.720308328136586e-18 -1.0
  outer loop
    vertex -92.66200256347655 126.92200469970703 0.04400000348687172
    vertex -92.3080062866211 133.2480010986328 0.04400000348686772
    vertex -92.24400329589844 126.3060073852539 0.04400000348687172
  endloop
endfacet
facet normal 3.9408714318441606e-17 -4.720308328136586e-18 -1.0
  outer loop
    vertex -92.24400329589844 126.3060073852539 0.04400000348687172
    vertex -92.3080062866211 133.2480010986328 0.04400000348686772
    vertex -91.82400512695311 133.81201171875 0.04400000348686772
  endloop
endfacet
facet normal 3.9408714318441606e-17 -4.720308328136586e-18 -1.0
  outer loop
    vertex -92.24400329589844 126.3060073852539 0.04400000348687172
    vertex -91.82400512695311 133.81201171875 0.04400000348686772
    vertex -91.74200439453125 125.7540054321289 0.04400000348687172
  endloop
endfacet
facet normal 3.9408714318441606e-17 -4.720308328136586e-18 -1.0
  outer loop
    vertex -91.74200439453125 125.7540054321289 0.04400000348687172
    vertex -91.82400512695311 133.81201171875 0.04400000348686772
    vertex -91.27000427246094 134.3100128173828 0.04400000348686772
  endloop
endfacet
facet normal 3.9408714318441606e-17 -4.720308328136586e-18 -1.0
  outer loop
    vertex -91.74200439453125 125.7540054321289 0.04400000348687172
    vertex -91.27000427246094 134.3100128173828 0.04400000348686772
    vertex -91.18000793457031 125.26600646972655 0.04400000348687172
  endloop
endfacet
facet normal 3.9408714318441606e-17 -4.720308328136586e-18 -1.0
  outer loop
    vertex -91.18000793457031 125.26600646972655 0.04400000348687172
    vertex -91.27000427246094 134.3100128173828 0.04400000348686772
    vertex -90.65400695800781 134.73200988769528 0.04400000348687172
  endloop
endfacet
facet normal 3.9408714318441606e-17 -4.720308328136586e-18 -1.0
  outer loop
    vertex -91.18000793457031 125.26600646972655 0.04400000348687172
    vertex -90.65400695800781 134.73200988769528 0.04400000348687172
    vertex -90.55400085449217 124.8600082397461 0.04400000348687172
  endloop
endfacet
facet normal 3.9408714318441606e-17 -4.720308328136586e-18 -1.0
  outer loop
    vertex -90.55400085449217 124.8600082397461 0.04400000348687172
    vertex -90.65400695800781 134.73200988769528 0.04400000348687172
    vertex -89.98800659179686 135.06600952148438 0.04400000348687172
  endloop
endfacet
facet normal 3.9408714318441606e-17 -4.720308328136586e-18 -1.0
  outer loop
    vertex -90.55400085449217 124.8600082397461 0.04400000348687172
    vertex -89.98800659179686 135.06600952148438 0.04400000348687172
    vertex -89.95600433349608 127.62611140007527 0.04400000348687172
  endloop
endfacet
facet normal 3.9408714318441606e-17 -4.720308328136586e-18 -1.0
  outer loop
    vertex -90.55400085449217 124.8600082397461 0.04400000348687172
    vertex -89.95600433349608 127.62611140007527 0.04400000348687172
    vertex -89.88200378417969 124.53400421142578 0.04400000348687172
  endloop
endfacet
facet normal 3.9408714318441606e-17 -4.720308328136586e-18 -1.0
  outer loop
    vertex -89.95600433349608 127.62611140007527 0.04400000348687172
    vertex -89.98800659179686 135.06600952148438 0.04400000348687172
    vertex -89.95600433349608 132.00125936053462 0.04400000348687172
  endloop
endfacet
facet normal 3.9408714318441606e-17 -4.720308328136586e-18 -1.0
  outer loop
    vertex -89.88200378417969 124.53400421142578 0.04400000348687172
    vertex -89.95600433349608 127.62611140007527 0.04400000348687172
    vertex -89.47813139507423 127.24572203272521 0.04400000348687172
  endloop
endfacet
facet normal 3.9408714318441606e-17 -4.720308328136586e-18 -1.0
  outer loop
    vertex -89.88200378417969 124.53400421142578 0.04400000348687172
    vertex -89.47813139507423 127.24572203272521 0.04400000348687172
    vertex -89.1760025024414 124.3000030517578 0.04400000348687172
  endloop
endfacet
facet normal 3.9408714318441606e-17 -4.720308328136586e-18 -1.0
  outer loop
    vertex -89.1760025024414 124.3000030517578 0.04400000348687172
    vertex -89.47813139507423 127.24572203272521 0.04400000348687172
    vertex -89.00179162204847 126.98196650052773 0.04400000348687172
  endloop
endfacet
facet normal 3.9408714318441606e-17 -4.720308328136586e-18 -1.0
  outer loop
    vertex -89.1760025024414 124.3000030517578 0.04400000348687172
    vertex -89.00179162204847 126.98196650052773 0.04400000348687172
    vertex -88.44000244140625 124.16600799560547 0.04400000348687172
  endloop
endfacet
facet normal 3.9408714318441606e-17 -4.720308328136586e-18 -1.0
  outer loop
    vertex -88.44000244140625 124.16600799560547 0.04400000348687172
    vertex -89.00179162204847 126.98196650052773 0.04400000348687172
    vertex -88.49025930876658 126.81080277652717 0.04400000348687172
  endloop
endfacet
facet normal 3.9408714318441606e-17 -4.720308328136586e-18 -1.0
  outer loop
    vertex -88.44000244140625 124.16600799560547 0.04400000348687172
    vertex -88.49025930876658 126.81080277652717 0.04400000348687172
    vertex -87.95481306864747 126.7300912189658 0.04400000348687172
  endloop
endfacet
facet normal 3.9408714318441606e-17 -4.720308328136586e-18 -1.0
  outer loop
    vertex -88.44000244140625 124.16600799560547 0.04400000348687172
    vertex -87.95481306864747 126.7300912189658 0.04400000348687172
    vertex -87.69800567626953 124.12400817871092 0.04400000348687172
  endloop
endfacet
facet normal 3.9408714318441606e-17 -4.720308328136586e-18 -1.0
  outer loop
    vertex -87.69800567626953 124.12400817871092 0.04400000348687172
    vertex -87.95481306864747 126.7300912189658 0.04400000348687172
    vertex -87.68891557092718 126.73599671298126 0.04400000348687172
  endloop
endfacet
facet normal 3.9408714318441606e-17 -4.720308328136586e-18 -1.0
  outer loop
    vertex -87.69800567626953 124.12400817871092 0.04400000348687172
    vertex -87.68891557092718 126.73599671298126 0.04400000348687172
    vertex -86.95600128173828 124.17800903320311 0.04400000348687172
  endloop
endfacet
facet normal 3.9408714318441606e-17 -4.720308328136586e-18 -1.0
  outer loop
    vertex -86.95600128173828 124.17800903320311 0.04400000348687172
    vertex -87.68891557092718 126.73599671298126 0.04400000348687172
    vertex -87.41343543691004 126.73992999881847 0.04400000348687172
  endloop
endfacet
facet normal 3.9408714318441606e-17 -4.720308328136586e-18 -1.0
  outer loop
    vertex -86.95600128173828 124.17800903320311 0.04400000348687172
    vertex -87.41343543691004 126.73992999881847 0.04400000348687172
    vertex -86.88614279158432 126.84814301369718 0.04400000348687172
  endloop
endfacet
facet normal 3.9408714318441606e-17 -4.720308328136586e-18 -1.0
  outer loop
    vertex -86.95600128173828 124.17800903320311 0.04400000348687172
    vertex -86.88614279158432 126.84814301369718 0.04400000348687172
    vertex -86.22400665283203 124.33400726318358 0.04400000348687172
  endloop
endfacet
facet normal 3.9408714318441606e-17 -4.720308328136586e-18 -1.0
  outer loop
    vertex -86.22400665283203 124.33400726318358 0.04400000348687172
    vertex -86.88614279158432 126.84814301369718 0.04400000348687172
    vertex -86.38213066891903 127.04305914446259 0.04400000348687172
  endloop
endfacet
facet normal 3.9408714318441606e-17 -4.720308328136586e-18 -1.0
  outer loop
    vertex -86.22400665283203 124.33400726318358 0.04400000348687172
    vertex -86.38213066891903 127.04305914446259 0.04400000348687172
    vertex -85.9235422564108 127.32057424626724 0.04400000348687172
  endloop
endfacet
facet normal 3.9408714318441606e-17 -4.720308328136586e-18 -1.0
  outer loop
    vertex -86.22400665283203 124.33400726318358 0.04400000348687172
    vertex -85.9235422564108 127.32057424626724 0.04400000348687172
    vertex -85.51800537109375 124.58000946044922 0.04400000348687172
  endloop
endfacet
facet normal 3.9408714318441606e-17 -4.720308328136586e-18 -1.0
  outer loop
    vertex -85.51800537109375 124.58000946044922 0.04400000348687172
    vertex -85.9235422564108 127.32057424626724 0.04400000348687172
    vertex -85.55200653076172 127.64282255451609 0.04400000348687172
  endloop
endfacet
facet normal -0.9973626199137298 -0.07257964176507838 -2.7236793367569164e-07
  outer loop
    vertex -93.45200347900389 129.76600646972656 2.5400002002716064
    vertex -93.44600677490234 129.6840057373047 0.04400000348687172
    vertex -93.44600677490234 129.6840057373047 2.5400002002716064
  endloop
endfacet
facet normal -0.9973626199137298 -0.07257964176507838 -2.7236793367569164e-07
  outer loop
    vertex -93.44600677490234 129.6840057373047 0.04400000348687172
    vertex -93.45200347900389 129.76600646972656 2.5400002002716064
    vertex -93.45200347900389 129.76600646972656 0.04400000348686772
  endloop
endfacet
facet normal -0.9987050327403189 0.05087492092533009 3.471490072435944e-20
  outer loop
    vertex -93.41400146484375 130.5120086669922 2.5400002002716064
    vertex -93.45200347900389 129.76600646972656 0.04400000348686772
    vertex -93.45200347900389 129.76600646972656 2.5400002002716064
  endloop
endfacet
facet normal -0.9987050327403189 0.05087492092533009 3.471490072435944e-20
  outer loop
    vertex -93.45200347900389 129.76600646972656 0.04400000348686772
    vertex -93.41400146484375 130.5120086669922 2.5400002002716064
    vertex -93.41400146484375 130.5120086669922 0.04400000348686772
  endloop
endfacet
facet normal -0.9826889653161027 0.18526304932707835 -8.381818893617658e-20
  outer loop
    vertex -93.2760009765625 131.24400329589844 2.5400002002716064
    vertex -93.41400146484375 130.5120086669922 0.04400000348686772
    vertex -93.41400146484375 130.5120086669922 2.5400002002716064
  endloop
endfacet
facet normal -0.9826889653161027 0.18526304932707835 -8.381818893617658e-20
  outer loop
    vertex -93.41400146484375 130.5120086669922 0.04400000348686772
    vertex -93.2760009765625 131.24400329589844 2.5400002002716064
    vertex -93.2760009765625 131.24400329589844 0.04400000348686772
  endloop
endfacet
facet normal -0.9480594959968346 0.3180930534106622 -3.7710868759317215e-05
  outer loop
    vertex -93.04000091552733 131.95201110839844 25.998001098632812
    vertex -93.2760009765625 131.24400329589844 2.5400002002716064
    vertex -93.2760009765625 131.24400329589844 25.998001098632812
  endloop
endfacet
facet normal -0.9480594959968346 0.3180930534106622 -3.7710868759317215e-05
  outer loop
    vertex -93.2760009765625 131.24400329589844 2.5400002002716064
    vertex -93.04000091552733 131.95201110839844 25.998001098632812
    vertex -93.2760009765625 131.24400329589844 0.04400000348686772
  endloop
endfacet
facet normal -0.9480594959968346 0.3180930534106622 -3.7710868759317215e-05
  outer loop
    vertex -93.2760009765625 131.24400329589844 0.04400000348686772
    vertex -93.04000091552733 131.95201110839844 25.998001098632812
    vertex -93.03600311279297 131.95001220703125 2.5400002002716064
  endloop
endfacet
facet normal -0.9480594959968346 0.3180930534106622 -3.7710868759317215e-05
  outer loop
    vertex -93.04000091552733 131.95201110839844 0.04400000348686772
    vertex -93.2760009765625 131.24400329589844 0.04400000348686772
    vertex -93.03600311279297 131.95001220703125 2.5400002002716064
  endloop
endfacet
facet normal -0.9016377955909977 0.4324919468751687 -3.807798642366161e-05
  outer loop
    vertex -93.04000091552733 131.95201110839844 25.998001098632812
    vertex -93.04000091552733 131.95201110839844 0.04400000348686772
    vertex -93.03600311279297 131.95001220703125 2.5400002002716064
  endloop
endfacet
facet normal -0.9016377955909977 0.4324919468751687 -3.807798642366161e-05
  outer loop
    vertex -93.04000091552733 131.95201110839844 0.04400000348686772
    vertex -93.04000091552733 131.95201110839844 25.998001098632812
    vertex -92.71600341796875 132.62400817871094 25.998001098632812
  endloop
endfacet
facet normal -0.9016377955909977 0.4324919468751687 -3.807798642366161e-05
  outer loop
    vertex -93.04000091552733 131.95201110839844 0.04400000348686772
    vertex -92.71600341796875 132.62400817871094 25.998001098632812
    vertex -92.71600341796875 132.62400817871094 0.04400000348686772
  endloop
endfacet
facet normal -0.9016377955909977 0.4324919468751687 -3.807798642366161e-05
  outer loop
    vertex -92.71600341796875 132.62400817871094 0.04400000348686772
    vertex -92.71600341796875 132.62400817871094 25.998001098632812
    vertex -92.71600341796875 132.62400817871094 2.5400002002716064
  endloop
endfacet
facet normal -0.8369685323078515 0.5472510172913718 1.8671050874418505e-19
  outer loop
    vertex -92.3080062866211 133.2480010986328 2.5400002002716064
    vertex -92.71600341796875 132.62400817871094 0.04400000348686772
    vertex -92.71600341796875 132.62400817871094 2.5400002002716064
  endloop
endfacet
facet normal -0.8369685323078515 0.5472510172913718 1.8671050874418505e-19
  outer loop
    vertex -92.71600341796875 132.62400817871094 0.04400000348686772
    vertex -92.3080062866211 133.2480010986328 2.5400002002716064
    vertex -92.3080062866211 133.2480010986328 0.04400000348686772
  endloop
endfacet
facet normal -0.7588818489194372 0.6512283312177201 3.672911045041454e-20
  outer loop
    vertex -91.82400512695311 133.81201171875 2.5400002002716064
    vertex -92.3080062866211 133.2480010986328 0.04400000348686772
    vertex -92.3080062866211 133.2480010986328 2.5400002002716064
  endloop
endfacet
facet normal -0.7588818489194372 0.6512283312177201 3.672911045041454e-20
  outer loop
    vertex -92.3080062866211 133.2480010986328 0.04400000348686772
    vertex -91.82400512695311 133.81201171875 2.5400002002716064
    vertex -91.82400512695311 133.81201171875 0.04400000348686772
  endloop
endfacet
facet normal -0.6685198597177976 0.7436942901239032 -2.537328115833086e-19
  outer loop
    vertex -91.82400512695311 133.81201171875 2.5400002002716064
    vertex -91.27000427246094 134.3100128173828 0.04400000348686772
    vertex -91.82400512695311 133.81201171875 0.04400000348686772
  endloop
endfacet
facet normal -0.6685198597177976 0.7436942901239032 -2.537328115833086e-19
  outer loop
    vertex -91.27000427246094 134.3100128173828 0.04400000348686772
    vertex -91.82400512695311 133.81201171875 2.5400002002716064
    vertex -91.27000427246094 134.3100128173828 2.5400002002716064
  endloop
endfacet
facet normal -0.5651629354580127 0.8249793066401618 5.939989746072952e-19
  outer loop
    vertex -91.27000427246094 134.3100128173828 2.5400002002716064
    vertex -90.65400695800781 134.73200988769528 0.04400000348687172
    vertex -91.27000427246094 134.3100128173828 0.04400000348686772
  endloop
endfacet
facet normal -0.5651629354580127 0.8249793066401618 5.939989746072952e-19
  outer loop
    vertex -90.65400695800781 134.73200988769528 0.04400000348687172
    vertex -91.27000427246094 134.3100128173828 2.5400002002716064
    vertex -90.65400695800781 134.73200988769528 2.5400002002716064
  endloop
endfacet
facet normal 0.9982170432159698 -0.059688646164120944 1.2339415268252983e-05
  outer loop
    vertex -82.0560073852539 129.82400512695312 0.04400000348687172
    vertex -82.09800720214844 129.13600158691406 2.5400002002716064
    vertex -82.09800720214844 129.13600158691406 0.04400000348686772
  endloop
endfacet
facet normal 0.9982170432159698 -0.059688646164120944 1.2339415268252983e-05
  outer loop
    vertex -82.09800720214844 129.13600158691406 2.5400002002716064
    vertex -82.0560073852539 129.82400512695312 0.04400000348687172
    vertex -82.09800720214844 129.13600158691406 25.998001098632812
  endloop
endfacet
facet normal 0.9982170432159698 -0.059688646164120944 1.2339415268252983e-05
  outer loop
    vertex -82.09800720214844 129.13600158691406 25.998001098632812
    vertex -82.0560073852539 129.82400512695312 0.04400000348687172
    vertex -82.05400085449217 129.87800598144528 25.998001098632812
  endloop
endfacet
facet normal 0.9982170432159698 -0.059688646164120944 1.2339415268252983e-05
  outer loop
    vertex -82.05400085449217 129.87800598144528 25.998001098632812
    vertex -82.0560073852539 129.82400512695312 0.04400000348687172
    vertex -82.05400085449217 129.87800598144528 0.04400000348687172
  endloop
endfacet
facet normal 0.9837418828938143 -0.17958816174941206 -2.903593831397703e-19
  outer loop
    vertex -82.09800720214844 129.13600158691406 0.04400000348686772
    vertex -82.23200225830078 128.40200805664062 2.5400002002716064
    vertex -82.23200225830078 128.40200805664062 0.04400000348686772
  endloop
endfacet
facet normal 0.9837418828938143 -0.17958816174941206 -2.903593831397703e-19
  outer loop
    vertex -82.23200225830078 128.40200805664062 2.5400002002716064
    vertex -82.09800720214844 129.13600158691406 0.04400000348686772
    vertex -82.09800720214844 129.13600158691406 2.5400002002716064
  endloop
endfacet
facet normal 0.9493993729801737 -0.314071373551017 -5.3857502067422084e-05
  outer loop
    vertex -82.23200225830078 128.40200805664062 0.04400000348686772
    vertex -82.47000122070311 127.69600677490234 2.5400002002716064
    vertex -82.46400451660156 127.69400787353514 0.04400000348686772
  endloop
endfacet
facet normal 0.9493993729801737 -0.314071373551017 -5.3857502067422084e-05
  outer loop
    vertex -82.47000122070311 127.69600677490234 2.5400002002716064
    vertex -82.23200225830078 128.40200805664062 25.998001098632812
    vertex -82.46400451660156 127.69400787353514 25.998001098632812
  endloop
endfacet
facet normal 0.9493993729801737 -0.314071373551017 -5.3857502067422084e-05
  outer loop
    vertex -82.23200225830078 128.40200805664062 25.998001098632812
    vertex -82.47000122070311 127.69600677490234 2.5400002002716064
    vertex -82.23200225830078 128.40200805664062 0.04400000348686772
  endloop
endfacet
facet normal 0.9493993729801737 -0.314071373551017 -5.3857502067422084e-05
  outer loop
    vertex -82.23200225830078 128.40200805664062 25.998001098632812
    vertex -82.23200225830078 128.40200805664062 0.04400000348686772
    vertex -82.23200225830078 128.40200805664062 2.5400002002716064
  endloop
endfacet
facet normal 0.9019890670042059 -0.4317588680607527 -5.343949611297976e-05
  outer loop
    vertex -82.46400451660156 127.69400787353514 0.04400000348686772
    vertex -82.78800201416014 127.02200317382811 2.5400002002716064
    vertex -82.78800201416014 127.02200317382811 0.04400000348686772
  endloop
endfacet
facet normal 0.9019890670042059 -0.4317588680607527 -5.343949611297976e-05
  outer loop
    vertex -82.78800201416014 127.02200317382811 2.5400002002716064
    vertex -82.46400451660156 127.69400787353514 0.04400000348686772
    vertex -82.78800201416014 127.02200317382811 25.998001098632812
  endloop
endfacet
facet normal 0.9019890670042059 -0.4317588680607527 -5.343949611297976e-05
  outer loop
    vertex -82.78800201416014 127.02200317382811 25.998001098632812
    vertex -82.46400451660156 127.69400787353514 0.04400000348686772
    vertex -82.46400451660156 127.69400787353514 25.998001098632812
  endloop
endfacet
facet normal 0.9019890670042059 -0.4317588680607527 -5.343949611297976e-05
  outer loop
    vertex -82.46400451660156 127.69400787353514 25.998001098632812
    vertex -82.46400451660156 127.69400787353514 0.04400000348686772
    vertex -82.47000122070311 127.69600677490234 2.5400002002716064
  endloop
endfacet
facet normal 0.8381993196716824 -0.5453640073399868 -3.721334014697432e-19
  outer loop
    vertex -82.78800201416014 127.02200317382811 0.04400000348686772
    vertex -83.19400024414062 126.3980026245117 2.5400002002716064
    vertex -83.19400024414062 126.3980026245117 0.04400000348686772
  endloop
endfacet
facet normal 0.8381993196716824 -0.5453640073399868 -3.721334014697432e-19
  outer loop
    vertex -83.19400024414062 126.3980026245117 2.5400002002716064
    vertex -82.78800201416014 127.02200317382811 0.04400000348686772
    vertex -82.78800201416014 127.02200317382811 2.5400002002716064
  endloop
endfacet
facet normal 0.7548872901773995 -0.655854541135931 3.378788594562452e-20
  outer loop
    vertex -83.19400024414062 126.3980026245117 0.04400000348686772
    vertex -83.68400573730469 125.83400726318358 2.5400002002716064
    vertex -83.68400573730469 125.83400726318358 0.04400000348686772
  endloop
endfacet
facet normal 0.7548872901773995 -0.655854541135931 3.378788594562452e-20
  outer loop
    vertex -83.68400573730469 125.83400726318358 2.5400002002716064
    vertex -83.19400024414062 126.3980026245117 0.04400000348686772
    vertex -83.19400024414062 126.3980026245117 2.5400002002716064
  endloop
endfacet
facet normal 0.671333796975696 -0.7411551342588103 -2.528665051382356e-19
  outer loop
    vertex -83.68400573730469 125.83400726318358 2.5400002002716064
    vertex -84.23600769042969 125.33400726318358 0.04400000348686772
    vertex -83.68400573730469 125.83400726318358 0.04400000348686772
  endloop
endfacet
facet normal 0.671333796975696 -0.7411551342588103 -2.528665051382356e-19
  outer loop
    vertex -84.23600769042969 125.33400726318358 0.04400000348686772
    vertex -83.68400573730469 125.83400726318358 2.5400002002716064
    vertex -84.23600769042969 125.33400726318358 2.5400002002716064
  endloop
endfacet
facet normal 0.5620910445015563 -0.8270753639730477 3.9450671377708214e-19
  outer loop
    vertex -84.23600769042969 125.33400726318358 2.5400002002716064
    vertex -84.85400390625 124.91400909423827 0.04400000348687172
    vertex -84.23600769042969 125.33400726318358 0.04400000348686772
  endloop
endfacet
facet normal 0.5620910445015563 -0.8270753639730477 3.9450671377708214e-19
  outer loop
    vertex -84.85400390625 124.91400909423827 0.04400000348687172
    vertex -84.23600769042969 125.33400726318358 2.5400002002716064
    vertex -84.85400390625 124.91400909423827 2.5400002002716064
  endloop
endfacet
facet normal -1.0 -0.0 -0.0
  outer loop
    vertex -85.55200653076172 132.01989966467062 25.998001098632823
    vertex -85.55200653076172 127.64282255451609 0.04400000348687172
    vertex -85.55200653076172 127.64282255451609 25.998001098632823
  endloop
endfacet
facet normal -1.0 -0.0 -0.0
  outer loop
    vertex -85.55200653076172 127.64282255451609 0.04400000348687172
    vertex -85.55200653076172 132.01989966467062 25.998001098632823
    vertex -85.55200653076172 132.01989966467062 0.04400000348687172
  endloop
endfacet
facet normal -0.6552215631530821 0.7554367631901638 -0.0
  outer loop
    vertex -85.9235422564108 127.32057424626724 25.998001098632823
    vertex -85.55200653076172 127.64282255451609 0.04400000348687172
    vertex -85.9235422564108 127.32057424626724 0.04400000348687172
  endloop
endfacet
facet normal -0.6552215631530821 0.7554367631901638 -0.0
  outer loop
    vertex -85.55200653076172 127.64282255451609 0.04400000348687172
    vertex -85.9235422564108 127.32057424626724 25.998001098632823
    vertex -85.55200653076172 127.64282255451609 25.998001098632823
  endloop
endfacet
facet normal -0.5177322656345109 0.8555426939206227 -0.0
  outer loop
    vertex -86.38213066891903 127.04305914446259 25.998001098632823
    vertex -85.9235422564108 127.32057424626724 0.04400000348687172
    vertex -86.38213066891903 127.04305914446259 0.04400000348687172
  endloop
endfacet
facet normal -0.5177322656345109 0.8555426939206227 -0.0
  outer loop
    vertex -85.9235422564108 127.32057424626724 0.04400000348687172
    vertex -86.38213066891903 127.04305914446259 25.998001098632823
    vertex -85.9235422564108 127.32057424626724 25.998001098632823
  endloop
endfacet
facet normal -0.36069581079090707 0.932683511207253 -0.0
  outer loop
    vertex -86.88614279158432 126.84814301369718 25.998001098632823
    vertex -86.38213066891903 127.04305914446259 0.04400000348687172
    vertex -86.88614279158432 126.84814301369718 0.04400000348687172
  endloop
endfacet
facet normal -0.36069581079090707 0.932683511207253 -0.0
  outer loop
    vertex -86.38213066891903 127.04305914446259 0.04400000348687172
    vertex -86.88614279158432 126.84814301369718 25.998001098632823
    vertex -86.38213066891903 127.04305914446259 25.998001098632823
  endloop
endfacet
facet normal -0.20103403076635867 0.9795842579757144 -0.0
  outer loop
    vertex -87.41343543691004 126.73992999881847 25.998001098632823
    vertex -86.88614279158432 126.84814301369718 0.04400000348687172
    vertex -87.41343543691004 126.73992999881847 0.04400000348687172
  endloop
endfacet
facet normal -0.20103403076635867 0.9795842579757144 -0.0
  outer loop
    vertex -86.88614279158432 126.84814301369718 0.04400000348687172
    vertex -87.41343543691004 126.73992999881847 25.998001098632823
    vertex -86.88614279158432 126.84814301369718 25.998001098632823
  endloop
endfacet
facet normal -0.014276474033779376 0.9998980859513448 -0.0
  outer loop
    vertex -87.68891557092718 126.73599671298126 25.998001098632823
    vertex -87.41343543691004 126.73992999881847 0.04400000348687172
    vertex -87.68891557092718 126.73599671298126 0.04400000348687172
  endloop
endfacet
facet normal -0.014276474033779376 0.9998980859513448 -0.0
  outer loop
    vertex -87.41343543691004 126.73992999881847 0.04400000348687172
    vertex -87.68891557092718 126.73599671298126 25.998001098632823
    vertex -87.41343543691004 126.73992999881847 25.998001098632823
  endloop
endfacet
facet normal -0.022204188101258963 0.9997534566235639 -0.0
  outer loop
    vertex -87.95481306864747 126.7300912189658 25.998001098632823
    vertex -87.68891557092718 126.73599671298126 0.04400000348687172
    vertex -87.95481306864747 126.7300912189658 0.04400000348687172
  endloop
endfacet
facet normal -0.022204188101258963 0.9997534566235639 -0.0
  outer loop
    vertex -87.68891557092718 126.73599671298126 0.04400000348687172
    vertex -87.95481306864747 126.7300912189658 25.998001098632823
    vertex -87.68891557092718 126.73599671298126 25.998001098632823
  endloop
endfacet
facet normal 0.14905314085828536 0.9888291870693746 0.0
  outer loop
    vertex -88.49025930876658 126.81080277652717 25.998001098632823
    vertex -87.95481306864747 126.7300912189658 0.04400000348687172
    vertex -88.49025930876658 126.81080277652717 0.04400000348687172
  endloop
endfacet
facet normal 0.14905314085828536 0.9888291870693746 0.0
  outer loop
    vertex -87.95481306864747 126.7300912189658 0.04400000348687172
    vertex -88.49025930876658 126.81080277652717 25.998001098632823
    vertex -87.95481306864747 126.7300912189658 25.998001098632823
  endloop
endfacet
facet normal 0.31731700420023146 0.9483195236023512 0.0
  outer loop
    vertex -89.00179162204847 126.98196650052773 25.998001098632823
    vertex -88.49025930876658 126.81080277652717 0.04400000348687172
    vertex -89.00179162204847 126.98196650052773 0.04400000348687172
  endloop
endfacet
facet normal 0.31731700420023146 0.9483195236023512 0.0
  outer loop
    vertex -88.49025930876658 126.81080277652717 0.04400000348687172
    vertex -89.00179162204847 126.98196650052773 25.998001098632823
    vertex -88.49025930876658 126.81080277652717 25.998001098632823
  endloop
endfacet
facet normal 0.48441069204191933 0.8748407177512194 0.0
  outer loop
    vertex -89.47813139507423 127.24572203272521 25.998001098632823
    vertex -89.00179162204847 126.98196650052773 0.04400000348687172
    vertex -89.47813139507423 127.24572203272521 0.04400000348687172
  endloop
endfacet
facet normal 0.48441069204191933 0.8748407177512194 0.0
  outer loop
    vertex -89.00179162204847 126.98196650052773 0.04400000348687172
    vertex -89.47813139507423 127.24572203272521 25.998001098632823
    vertex -89.00179162204847 126.98196650052773 25.998001098632823
  endloop
endfacet
facet normal 0.6227874202576086 0.7823910973220956 0.0
  outer loop
    vertex -89.95600433349608 127.62611140007527 25.998001098632823
    vertex -89.47813139507423 127.24572203272521 0.04400000348687172
    vertex -89.95600433349608 127.62611140007527 0.04400000348687172
  endloop
endfacet
facet normal 0.6227874202576086 0.7823910973220956 0.0
  outer loop
    vertex -89.47813139507423 127.24572203272521 0.04400000348687172
    vertex -89.95600433349608 127.62611140007527 25.998001098632823
    vertex -89.47813139507423 127.24572203272521 25.998001098632823
  endloop
endfacet
facet normal 1.0 -0.0 -0.0
  outer loop
    vertex -89.95600433349608 132.00125936053462 0.04400000348687172
    vertex -89.95600433349608 127.62611140007527 25.998001098632823
    vertex -89.95600433349608 127.62611140007527 0.04400000348687172
  endloop
endfacet
facet normal 1.0 -0.0 -0.0
  outer loop
    vertex -89.95600433349608 127.62611140007527 25.998001098632823
    vertex -89.95600433349608 132.00125936053462 0.04400000348687172
    vertex -89.95600433349608 132.00125936053462 25.998001098632823
  endloop
endfacet
facet normal 0.6571485192128367 -0.753761118456223 -0.0
  outer loop
    vertex -89.5863300679106 132.32355098618675 25.998001098632823
    vertex -89.95600433349608 132.00125936053462 0.04400000348687172
    vertex -89.5863300679106 132.32355098618675 0.04400000348687172
  endloop
endfacet
facet normal 0.6571485192128367 -0.753761118456223 -0.0
  outer loop
    vertex -89.95600433349608 132.00125936053462 0.04400000348687172
    vertex -89.5863300679106 132.32355098618675 25.998001098632823
    vertex -89.95600433349608 132.00125936053462 25.998001098632823
  endloop
endfacet
facet normal 0.5214421321287875 -0.853286647522967 -0.0
  outer loop
    vertex -89.12577080174421 132.60499803146584 25.998001098632823
    vertex -89.5863300679106 132.32355098618675 0.04400000348687172
    vertex -89.12577080174421 132.60499803146584 0.04400000348687172
  endloop
endfacet
facet normal 0.5214421321287875 -0.853286647522967 -0.0
  outer loop
    vertex -89.5863300679106 132.32355098618675 0.04400000348687172
    vertex -89.12577080174421 132.60499803146584 25.998001098632823
    vertex -89.5863300679106 132.32355098618675 25.998001098632823
  endloop
endfacet
facet normal 0.36068372081604816 -0.9326881866617005 -0.0
  outer loop
    vertex -88.62206222001727 132.7997892683041 25.998001098632823
    vertex -89.12577080174421 132.60499803146584 0.04400000348687172
    vertex -88.62206222001727 132.7997892683041 0.04400000348687172
  endloop
endfacet
facet normal 0.36068372081604816 -0.9326881866617005 -0.0
  outer loop
    vertex -89.12577080174421 132.60499803146584 0.04400000348687172
    vertex -88.62206222001727 132.7997892683041 25.998001098632823
    vertex -89.12577080174421 132.60499803146584 25.998001098632823
  endloop
endfacet
facet normal 0.1926249246608107 -0.9812724588000099 -0.0
  outer loop
    vertex -88.0905981941878 132.9041162745471 25.998001098632823
    vertex -88.62206222001727 132.7997892683041 0.04400000348687172
    vertex -88.0905981941878 132.9041162745471 0.04400000348687172
  endloop
endfacet
facet normal 0.1926249246608107 -0.9812724588000099 -0.0
  outer loop
    vertex -88.62206222001727 132.7997892683041 0.04400000348687172
    vertex -88.0905981941878 132.9041162745471 25.998001098632823
    vertex -88.62206222001727 132.7997892683041 25.998001098632823
  endloop
endfacet
facet normal 0.021880680611736307 -0.99976058924923 -0.0
  outer loop
    vertex -87.55120695274405 132.91592134828747 25.998001098632823
    vertex -88.0905981941878 132.9041162745471 0.04400000348687172
    vertex -87.55120695274405 132.91592134828747 0.04400000348687172
  endloop
endfacet
facet normal 0.021880680611736307 -0.99976058924923 -0.0
  outer loop
    vertex -88.0905981941878 132.9041162745471 0.04400000348687172
    vertex -87.55120695274405 132.91592134828747 25.998001098632823
    vertex -88.0905981941878 132.9041162745471 25.998001098632823
  endloop
endfacet
facet normal -0.1490531408583443 -0.9888291870693657 -0.0
  outer loop
    vertex -87.01575254415827 132.83520855943596 25.998001098632823
    vertex -87.55120695274405 132.91592134828747 0.04400000348687172
    vertex -87.01575254415827 132.83520855943596 0.04400000348687172
  endloop
endfacet
facet normal -0.1490531408583443 -0.9888291870693657 -0.0
  outer loop
    vertex -87.55120695274405 132.91592134828747 0.04400000348687172
    vertex -87.01575254415827 132.83520855943596 25.998001098632823
    vertex -87.55120695274405 132.91592134828747 25.998001098632823
  endloop
endfacet
facet normal -0.3173128173554993 -0.9483209245513439 -0.0
  outer loop
    vertex -86.50425504228464 132.66405899478133 25.998001098632823
    vertex -87.01575254415827 132.83520855943596 0.04400000348687172
    vertex -86.50425504228464 132.66405899478133 0.04400000348687172
  endloop
endfacet
facet normal -0.3173128173554993 -0.9483209245513439 -0.0
  outer loop
    vertex -87.01575254415827 132.83520855943596 0.04400000348687172
    vertex -86.50425504228464 132.66405899478133 25.998001098632823
    vertex -87.01575254415827 132.83520855943596 25.998001098632823
  endloop
endfacet
facet normal -0.4859623869125419 -0.8739797243107332 -0.0
  outer loop
    vertex -86.02991421314718 132.40030939610557 25.998001098632823
    vertex -86.50425504228464 132.66405899478133 0.04400000348687172
    vertex -86.02991421314718 132.40030939610557 0.04400000348687172
  endloop
endfacet
facet normal -0.4859623869125419 -0.8739797243107332 -0.0
  outer loop
    vertex -86.50425504228464 132.66405899478133 0.04400000348687172
    vertex -86.02991421314718 132.40030939610557 25.998001098632823
    vertex -86.50425504228464 132.66405899478133 25.998001098632823
  endloop
endfacet
facet normal -0.6227801122900158 -0.7823969144469035 -0.0
  outer loop
    vertex -85.55200653076172 132.01989966467062 25.998001098632823
    vertex -86.02991421314718 132.40030939610557 0.04400000348687172
    vertex -85.55200653076172 132.01989966467062 0.04400000348687172
  endloop
endfacet
facet normal -0.6227801122900158 -0.7823969144469035 -0.0
  outer loop
    vertex -86.02991421314718 132.40030939610557 0.04400000348687172
    vertex -85.55200653076172 132.01989966467062 25.998001098632823
    vertex -86.02991421314718 132.40030939610557 25.998001098632823
  endloop
endfacet
endsolid wheeltracks
